<svg width="28" height="24" viewBox="0 0 28 24" fill="none" xmlns="http://www.w3.org/2000/svg"><path fill-rule="evenodd" clip-rule="evenodd" d="M27.8564 22.7732V23.4014C20.8627 23.4014 17.3076 22.6528 13.8697 21.9289C10.4636 21.2116 6.94154 20.47 0.0141602 20.47V19.8418C4.20579 19.8418 7.16197 20.1108 9.59829 20.4821L10.3822 19.2886L10.8628 16.4357L8.9109 13.3151C8.9109 13.3151 4.02761 12.5501 3.07021 12.4008C2.11282 12.2515 1.87984 11.8952 2.02755 10.9799C2.10987 10.4702 2.49647 8.13276 2.823 6.16104C3.40265 6.35515 4.02539 6.37645 4.6119 6.22889L4.61865 10.2939L10.5875 10.0229C10.5875 10.0229 17.348 11.1721 17.9006 11.266C18.469 11.3626 18.7493 11.486 19.0877 12.0416C19.4503 12.6371 21.5833 16.2733 21.5833 16.2733L27.6653 16.8666C27.6653 16.8666 27.6301 17.9639 26.4876 18.0357C25.7493 18.0821 22.4845 18.2416 21.0647 18.3061C20.3457 18.3387 20.2258 18.3045 19.8679 17.8624C19.4893 17.3949 18.2783 15.8683 18.2783 15.8683L18.385 14.8082L18.1186 14.7655L17.5011 18.0135L16.7679 21.8706C19.4917 22.37 22.7482 22.7732 27.8564 22.7732ZM12.5652 7.21743C12.4909 6.78823 12.5406 6.34213 12.6964 5.90712C13.1467 4.65141 14.5648 4.16034 15.6737 4.55195C16.7818 4.94341 17.4989 6.27005 17.0547 7.50953C16.9123 7.90643 16.4109 9.30536 16.1538 10.0227C16.0442 10.3284 15.6938 10.2258 15.2674 10.1551C14.7861 10.0753 14.3546 10.0041 14.3546 10.0041C14.3546 10.0041 12.6772 7.86403 12.5652 7.21743ZM5.43628 4.61521C5.42806 4.62431 5.41935 4.6329 5.41102 4.64185L4.33519 2.73761L4.99901 2.36803L5.86401 3.8992C5.77172 4.16015 5.62765 4.40294 5.43628 4.61521ZM3.95282 5.32318C3.73176 5.33501 3.51418 5.3136 3.30556 5.26141L2.4673 3.77751L3.0807 3.4361L4.13639 5.30491C4.0758 5.31333 4.01468 5.31977 3.95282 5.32318ZM2.23147 1.76757C2.61464 1.3425 3.14156 1.09113 3.71509 1.05957C3.75586 1.05732 3.79631 1.05622 3.83675 1.05622C3.989 1.05622 4.13897 1.0725 4.28515 1.10338L4.34258 1.20499L1.81055 2.61444L1.77922 2.55895C1.8694 2.26947 2.02185 2.00004 2.23147 1.76757ZM1.76041 3.7607C1.72007 3.61491 1.6946 3.464 1.68595 3.30952C1.68252 3.24702 1.68215 3.18488 1.68411 3.12306L1.97636 3.64046L1.76041 3.7607ZM2.24891 4.63506C2.10009 4.47466 1.97865 4.29459 1.88673 4.10054L2.15278 3.95245L2.46913 4.51246L2.24891 4.63506ZM2.77258 5.04879C2.68863 5.00127 2.60769 4.94797 2.52993 4.88895L2.64583 4.82442L2.77258 5.04879ZM2.2912 3.46551L1.98676 2.92643L4.51869 1.51698L4.82329 2.05605L2.2912 3.46551ZM4.02087 2.91256L5.13778 4.8894C4.94556 5.03551 4.73104 5.14722 4.50186 5.22113L3.3947 3.26114L4.02087 2.91256ZM5.40377 1.73264L5.13709 1.8811L4.83255 1.34208L4.87131 1.32051C5.01211 1.39783 5.14521 1.49137 5.26814 1.60052C5.3157 1.64276 5.36069 1.68705 5.40377 1.73264ZM5.31401 2.19311L5.63079 2.01676C5.75081 2.19694 5.84183 2.39387 5.90158 2.602L5.63026 2.75302L5.31401 2.19311ZM5.98111 3.07329C5.98659 3.17243 5.98485 3.27074 5.97694 3.36806L5.80577 3.06507L5.97294 2.972C5.97642 3.0056 5.97916 3.03937 5.98111 3.07329ZM6.52124 3.04364C6.48142 2.33114 6.16454 1.67664 5.62892 1.2007C5.0932 0.724809 4.40312 0.483696 3.68509 0.523847C2.96732 0.563317 2.30798 0.877873 1.82858 1.40972C1.34917 1.94147 1.10707 2.6267 1.14678 3.33914C1.18654 4.05165 1.50342 4.70615 2.03915 5.18204L2.03909 5.18198C2.53675 5.62422 3.16782 5.86313 3.83063 5.86308C3.88115 5.86308 3.93194 5.86172 3.98277 5.85894C4.70059 5.81947 5.35998 5.50481 5.83939 4.97307C6.3189 4.44137 6.56105 3.75614 6.52124 3.04364Z" fill="black"></path></svg>