<svg xmlns="http://www.w3.org/2000/svg" class="de-Icon de-PriceCompareIcon" width="26" height="26" viewBox="0 0 26 26"><defs><clipPath id="a"><rect x="-11.7" y="5.23" width="7.2" height="6.82" rx="0.76" style="fill:none"></rect></clipPath></defs><path d="M.92,13.32a.3.3,0,0,0,.25-.14.5.5,0,0,0,.11-.32V11.48A1.69,1.69,0,0,1,2.71,9.63a.42.42,0,0,0,.35-.46c0-.25-.16-.46-.35-.46C1.52,8.71.57,10,.57,11.48v1.38a.49.49,0,0,0,.1.32A.33.33,0,0,0,.92,13.32Z"></path><path d="M10.8,15a.3.3,0,0,0-.1.27.29.29,0,0,0,.47.17h0l.06-.05,0,0,.05-.05.05,0,.06-.05.05,0,.05-.05,0-.05h0a.29.29,0,0,0-.18-.5.32.32,0,0,0-.21.08h0l-.05.05-.05,0,0,0-.05,0,0,0-.05,0-.06.05,0,0Z"></path><path d="M6.89,17.09a.3.3,0,0,0-.2.35.29.29,0,0,0,.36.21l0,0,.07,0,.06,0,.07,0,.07,0,.07,0,.06,0,.07,0h0a.29.29,0,0,0,0-.53.29.29,0,0,0-.24,0l0,0-.06,0-.07,0-.06,0-.06,0-.07,0-.06,0-.07,0Z"></path><path d="M9,16.24a.28.28,0,0,0-.05.47.27.27,0,0,0,.32,0l0,0,.06,0,.06,0,.06,0,.06,0,.06,0,.06,0,.06,0,0,0a.29.29,0,1,0-.3-.49l0,0-.05,0-.06,0,0,0-.06,0-.06,0-.06,0-.05,0Z"></path><path d="M12.35,13.35a.3.3,0,0,0,0,.29.3.3,0,0,0,.5.07v0l0,0,0-.06,0-.05,0-.06,0-.05,0-.06,0-.06,0-.05,0,0a.29.29,0,0,0-.29-.45.35.35,0,0,0-.19.12v0l0,.05,0,0,0,.06,0,.05,0,0,0,.05,0,.06,0,.05Z"></path><path d="M18.2,9.94a.29.29,0,0,0,0-.58h-.58a.29.29,0,1,0,0,.58Zm1.41.31a.3.3,0,0,0,.13.25.29.29,0,0,0,.44-.25V9.68a.29.29,0,1,0-.57,0Zm0,2.31a.28.28,0,0,0,.13.24.29.29,0,0,0,.44-.24V12a.3.3,0,0,0-.14-.25.29.29,0,0,0-.43.25Zm0,2.3a.28.28,0,0,0,.13.24.29.29,0,0,0,.44-.24v-.58A.27.27,0,0,0,20,14a.28.28,0,0,0-.43.24Zm0,2.3a.31.31,0,0,0,.13.25.29.29,0,0,0,.44-.25v-.57a.27.27,0,0,0-.14-.25.28.28,0,0,0-.43.25Zm0,2.3a.3.3,0,0,0,.13.25.29.29,0,0,0,.44-.25v-.57a.29.29,0,1,0-.57,0Zm0,2.31a.28.28,0,0,0,.13.24.29.29,0,0,0,.44-.24v-.58a.3.3,0,0,0-.14-.25.29.29,0,0,0-.43.25Zm-.35,1.38a.27.27,0,0,0-.24.14.28.28,0,0,0,.24.43h.58a.27.27,0,0,0,.24-.14.28.28,0,0,0-.24-.43Zm-2.3,0a.3.3,0,0,0-.25.14.29.29,0,0,0,.25.43h.57a.27.27,0,0,0,.25-.14.28.28,0,0,0-.25-.43Zm-2.3,0a.29.29,0,0,0-.25.14.28.28,0,0,0,.25.43h.57a.3.3,0,0,0,.25-.14.29.29,0,0,0-.25-.43Zm-2.31,0a.27.27,0,0,0-.24.14.28.28,0,0,0,.24.43h.58a.3.3,0,0,0,.25-.14.29.29,0,0,0-.25-.43Zm-2.3,0a.27.27,0,0,0-.24.14.28.28,0,0,0,.24.43h.58a.27.27,0,0,0,.24-.14.28.28,0,0,0-.24-.43Zm-2.3,0a.3.3,0,0,0-.25.14.29.29,0,0,0,.25.43h.57a.29.29,0,0,0,.25-.14.28.28,0,0,0-.25-.43Zm-1.36-.38a.28.28,0,0,0-.13-.24.29.29,0,0,0-.44.24v.58A.3.3,0,0,0,6,23.6a.29.29,0,0,0,.43-.25Zm0-4.6a.31.31,0,0,0-.13-.25.29.29,0,0,0-.44.25v.58A.27.27,0,0,0,6,19a.28.28,0,0,0,.43-.24Zm0,2.3a.28.28,0,0,0-.13-.24.29.29,0,0,0-.44.24v.58a.27.27,0,0,0,.14.24.28.28,0,0,0,.43-.24Z"></path><path d="M23.14,1.93a1.57,1.57,0,0,0-1-1.57A1.68,1.68,0,0,0,20.26.8l0,.06-.42.66H7.6a1.73,1.73,0,0,0-1.68,1.7,1.73,1.73,0,0,0,1.77,1.7h8.88a.43.43,0,0,0-.05-.85H7.62a.86.86,0,0,1-.82-.85.87.87,0,0,1,.89-.85H19.26l-3.17,5H4.17a.38.38,0,0,0-.38.39V25.37a.38.38,0,0,0,.38.38H21.83a.38.38,0,0,0,.38-.38V7.72a.38.38,0,0,0-.38-.39h-3.3L22.61,3A1.55,1.55,0,0,0,23.14,1.93ZM21.44,8.1V25H4.56V8.1h11l-2.17,3.39,0,0a.41.41,0,0,0,.14.52.45.45,0,0,0,.6-.06l3.66-3.9Zm.5-5.73s-.05,0-.06,0L17.33,7.33h-.16l3.14-5h1.05a.42.42,0,0,0,.43-.42.42.42,0,0,0-.43-.41h-.53L21,1.33a.74.74,0,0,1,.51-.23.76.76,0,0,1,.55.21.65.65,0,0,1,.21.54A.7.7,0,0,1,21.94,2.37Z"></path><path d="M22.94,4.61h-.83a.42.42,0,1,0,0,.84h.83A1.66,1.66,0,0,1,24.6,7.12V8a1.66,1.66,0,0,1-1.66,1.67.42.42,0,0,0,0,.84A2.49,2.49,0,0,0,25.43,8V7.12A2.5,2.5,0,0,0,22.94,4.61Z"></path></svg>