<svg width="19" height="27" viewBox="0 0 19 27" fill="none" xmlns="http://www.w3.org/2000/svg"><path fill-rule="evenodd" clip-rule="evenodd" d="M13.8844 6.87927L13.2032 6.02133C13.3927 6.03519 13.5838 6.01953 13.7723 5.97028C13.9007 5.93677 14.0222 5.88901 14.1371 5.8299L13.8844 6.87927ZM12.8489 5.26645L13.459 5.11064L13.5849 5.60739C13.3668 5.65163 13.1444 5.63879 12.9278 5.57771L12.8489 5.26645ZM12.66 4.52151L13.2702 4.3657L13.4254 4.97811L12.8152 5.13392L12.66 4.52151ZM12.46 5.36582L12.7171 5.30014L12.7746 5.52701C12.6673 5.48479 12.562 5.43067 12.46 5.36582ZM12.3129 5.26216C12.1948 5.17179 12.0823 5.06682 11.9779 4.9483L11.9177 4.711L12.5279 4.5552L12.6831 5.16761L12.3129 5.26216ZM11.7289 3.96606L12.3391 3.81026L12.4943 4.42267L11.8841 4.57848L11.7289 3.96606ZM11.7299 4.6179C11.6178 4.44226 11.5214 4.24793 11.4447 4.03873L11.5971 3.99981L11.7522 4.61218L11.7299 4.6179ZM11.354 3.74994C11.3137 3.59572 11.286 3.44193 11.2699 3.29035L11.4086 3.2549L11.5638 3.86727L11.4006 3.90896C11.384 3.85667 11.3681 3.80386 11.354 3.74994ZM11.2667 2.69479L11.3751 3.12242L11.2584 3.15223C11.249 2.99616 11.2521 2.84313 11.2667 2.69479ZM11.6403 1.60947L11.7727 1.57561L11.9279 2.18803L11.325 2.34199C11.3901 2.0681 11.4972 1.81915 11.6403 1.60947ZM12.4178 1.00614L12.4805 1.25359L11.8702 1.4094L11.8551 1.34973C12.0161 1.1919 12.2055 1.07395 12.4178 1.00614ZM12.6709 1.99853L12.0608 2.15434L11.9056 1.54192L12.5158 1.38612L12.6709 1.99853ZM13.2067 0.995931L13.2239 1.06409L12.6138 1.2199L12.5507 0.970996C12.7683 0.925349 12.9902 0.936387 13.2067 0.995931ZM13.4123 1.80903L12.8022 1.96484L12.647 1.35243L13.2571 1.19662L13.4123 1.80903ZM13.5365 1.12554C13.7588 1.24062 13.9687 1.40672 14.1542 1.61416L14.1556 1.61948L13.5454 1.77529L13.3902 1.16292L13.5365 1.12554ZM14.3435 2.36436L13.7333 2.52012L13.5781 1.90775L14.1883 1.75194L14.3435 2.36436ZM14.5998 2.29884L14.4753 2.33068L14.3606 1.87843C14.4498 2.0079 14.5299 2.14875 14.5998 2.29884ZM14.7893 2.82641C14.8088 2.89462 14.8251 2.9627 14.8396 3.03059L14.6636 3.07549L14.5083 2.46313L14.6548 2.42575C14.7074 2.5535 14.7529 2.68714 14.7893 2.82641ZM14.8996 3.80842L14.8524 3.82047L14.6972 3.2081L14.8651 3.16518C14.9016 3.38493 14.9122 3.60094 14.8996 3.80842ZM14.7003 4.65262L14.2998 4.75486L14.1446 4.1425L14.7548 3.98673L14.829 4.27961C14.7961 4.41053 14.7529 4.53534 14.7003 4.65262ZM14.3955 5.13234L14.3335 4.8876L14.6199 4.81442C14.555 4.93048 14.4799 5.03701 14.3955 5.13234ZM14.0125 4.17623L14.1677 4.7886L13.5575 4.94441L13.4023 4.33199L14.0125 4.17623ZM13.2135 3.58705L13.8237 3.43129L13.9789 4.0437L13.3687 4.19947L13.2135 3.58705ZM13.0823 3.62079L13.2375 4.2332L12.6274 4.38901L12.4721 3.7766L13.0823 3.62079ZM12.2824 3.03166L12.8926 2.87585L13.0478 3.48826L12.4376 3.64407L12.2824 3.03166ZM12.1502 3.06538L12.3054 3.67779L11.6953 3.8336L11.54 3.22118L12.1502 3.06538ZM12.1165 2.93294L11.5064 3.08874L11.3512 2.47633L11.9614 2.32052L12.1165 2.93294ZM12.8589 2.74337L12.2487 2.89917L12.0935 2.2868L12.7037 2.131L12.8589 2.74337ZM12.991 2.70968L12.8358 2.09726L13.4459 1.9415L13.6011 2.55387L12.991 2.70968ZM13.79 3.29879L13.1799 3.4546L13.0246 2.84219L13.6348 2.68638L13.79 3.29879ZM14.5659 3.24174L14.7211 3.85415L14.111 4.00991L13.9558 3.39754L14.5659 3.24174ZM13.9222 3.26502L13.7669 2.65269L14.3771 2.49688L14.5323 3.10925L13.9222 3.26502ZM13.717 5.57319L13.5912 5.07687L14.2013 4.92111L14.2836 5.2457C14.1212 5.39627 13.9308 5.50881 13.717 5.57319ZM14.7427 9.0577L14.2474 7.30134C14.2474 7.30134 14.3909 6.25453 14.7886 5.44136C15.1863 4.62815 15.4658 3.76938 15.2011 2.72495C14.8201 1.22224 13.5464 0.270238 12.3719 0.576928C11.1972 0.883662 10.5617 2.34873 10.9438 3.82224C11.1839 4.74843 11.8302 5.53226 12.3921 5.90179C12.9539 6.27133 13.7764 7.45904 13.7764 7.45904L14.1523 9.39324C14.0072 9.53872 13.8709 9.67553 13.762 9.78476L11.2195 10.2821C11.2195 10.2821 8.08182 7.4294 7.93749 7.29575C7.66386 7.04236 7.46603 6.94412 7.15735 6.91769C6.93472 6.8986 6.69338 6.87494 5.7069 6.79306C4.49443 6.6924 4.06586 7.6261 3.84639 8.38298C3.61236 9.18985 2.42433 13.3903 2.42433 13.3903L1.93912 14.5207C1.4539 15.6512 1.69497 17.038 1.97851 17.5813C2.262 18.1246 3.7198 20.9177 3.7198 20.9177C3.7198 20.9177 1.31066 23.8858 0.485473 24.9144C-0.339715 25.943 0.362832 26.6476 0.362832 26.6476C0.362832 26.6476 6.25382 21.3997 6.60119 21.081C6.98958 20.7246 7.12567 20.2902 6.92192 19.8488C6.46374 19.5531 4.08036 17.9987 4.08036 17.9987L3.94274 17.723L9.32887 20.6844C9.32887 20.6844 11.8744 24.4287 12.8144 25.7942C13.7544 27.1596 14.7252 26.5211 14.7252 26.5211C14.7252 26.5211 11.1707 19.7654 10.9385 19.3354C10.6411 18.7845 10.6104 18.7325 10.1443 18.3312C9.79376 18.0293 5.76452 14.5601 5.76452 14.5601L5.83082 14.4199C6.42926 13.1622 7.58184 11.5481 7.99967 10.9784L7.11761 10.4634L7.17106 10.2904C7.17106 10.2904 10.4159 11.8399 10.5297 11.8942C10.6563 11.9547 10.8363 11.9635 10.9382 11.9287C11.0257 11.8989 14.0839 10.8305 14.5887 10.6579C15.1193 10.4766 15.3258 9.77439 15.2085 9.50182C15.1742 9.37798 14.9673 9.12574 14.7427 9.0577ZM6.25052 6.47489C6.25052 6.47489 6.57607 6.50264 6.93909 6.53382C7.26074 6.56144 7.52762 6.61782 7.59089 6.38109C7.73912 5.82576 8.0284 4.74284 8.11038 4.43554C8.36661 3.47606 7.75306 2.52046 6.90478 2.29222C6.05562 2.0639 5.0294 2.51848 4.76988 3.49058C4.67993 3.82735 4.66976 4.1661 4.75091 4.48453C4.87307 4.96466 6.25052 6.47489 6.25052 6.47489ZM18.1617 14.6028C18.0715 14.4931 18.0207 14.3543 18.0207 14.2075C18.0207 14.0601 18.0719 13.9214 18.1617 13.8121C18.2547 13.9195 18.3108 14.0573 18.3108 14.2075C18.3108 14.3577 18.2547 14.4954 18.1617 14.6028ZM17.3176 14.7295C17.4507 14.5784 17.5276 14.382 17.5276 14.1724C17.5276 13.9848 17.466 13.8071 17.3565 13.6628C17.4482 13.615 17.5532 13.5877 17.6648 13.5877C17.7841 13.5877 17.8957 13.6194 17.9918 13.6737C17.871 13.8214 17.8022 14.0085 17.8022 14.2075C17.8022 14.4056 17.8705 14.5929 17.9919 14.7412C17.8957 14.7955 17.7842 14.8273 17.6648 14.8273C17.537 14.8273 17.4181 14.7911 17.3176 14.7295ZM17.1817 13.7962C17.2624 13.9028 17.3078 14.0339 17.3078 14.1724C17.3078 14.3276 17.2509 14.4729 17.1522 14.5846C17.0681 14.48 17.0175 14.3494 17.0175 14.2075C17.0175 14.0496 17.08 13.9058 17.1817 13.7962ZM17.6647 13.2521C17.1238 13.2521 16.6838 13.6807 16.6838 14.2075C16.6838 14.7343 17.1238 15.1628 17.6647 15.1628C18.2056 15.1628 18.6457 14.7343 18.6457 14.2075C18.6457 13.6807 18.2056 13.2521 17.6647 13.2521Z" fill="black"></path></svg>