<svg xmlns="http://www.w3.org/2000/svg" class="de-Icon de-PriceCompareIcon" width="26" height="26" viewBox="0 0 26 26"><defs><clipPath id="a"><path d="M-6.52,21.78h-8.9L-28.16,8A2,2,0,0,1-26,6.07h0l11.62,13.5a.48.48,0,0,0,.35.16h7.63A1.63,1.63,0,0,1-6.52,21.78ZM-20.7,1.22a10,10,0,0,0,0,1.47c.11,1.57.59,2.63,1.45,3.13a2.41,2.41,0,0,1,.76.72,1.84,1.84,0,0,0,1.81.83,17.76,17.76,0,0,0,3-.37c.12.47.23.93.35,1.39l-6.51,3.52-5.48-6.37A6.32,6.32,0,0,1-20.7,1.22Zm8.13,10.23-5.27,2.78-1.41-1.64,6.14-3.32Zm1.38,4.23c1.95.13,3.3.65,4,1.56a2.6,2.6,0,0,1,.57,1.62h-7.25l-3.39-3.94,4.9-2.59c.25,1,.51,2,.76,3A.44.44,0,0,0-11.19,15.68Zm5.46,3.51a3.51,3.51,0,0,0-.72-2.47,6,6,0,0,0-4.34-1.88c-.52-2.07-1-4.13-1.55-6.2l0-.14h0c-.17-.7-.35-1.4-.53-2.1a.45.45,0,0,0-.52-.33,20.44,20.44,0,0,1-3.26.43c-.74,0-.84-.14-1.08-.47a3.17,3.17,0,0,0-1-1c-1.22-.73-1.1-3.4-1-4.37a.4.4,0,0,0-.13-.38.46.46,0,0,0-.4-.11,7.33,7.33,0,0,0-5.87,5c-1.16,0-2.57.56-2.94,2.82a.44.44,0,0,0,.11.36L-16,22.5a.45.45,0,0,0,.34.15H-6.3a.46.46,0,0,0,.35-.16A2.52,2.52,0,0,0-5.73,19.19Z" style="fill:none"></path></clipPath><clipPath id="b"><circle cx="-19.53" cy="15.02" r="6.22" style="fill:none"></circle></clipPath><clipPath id="c"><path d="M-25.1,14.72a5.62,5.62,0,0,0,5.69,5.53,5.61,5.61,0,0,0,5.68-5.53,5.61,5.61,0,0,0-5.68-5.54A5.62,5.62,0,0,0-25.1,14.72Zm-4.37,8.41a1,1,0,0,0-.31.7,1,1,0,0,0,1,1,1,1,0,0,0,.72-.3h0l4.58-4.46a6.89,6.89,0,0,1-1.42-1.38Zm16.88-8.41a6.74,6.74,0,0,1-6.82,6.64,6.93,6.93,0,0,1-3.19-.77l-4.74,4.62h0a2,2,0,0,1-1.43.59,2,2,0,0,1-2-2,1.94,1.94,0,0,1,.6-1.39h0l4.74-4.61a6.45,6.45,0,0,1-.8-3.11,6.74,6.74,0,0,1,6.83-6.65A6.74,6.74,0,0,1-12.59,14.72Z" style="fill:none"></path></clipPath><clipPath id="d"><path d="M-20.3,10.23a4.82,4.82,0,0,0-4,4,.28.28,0,0,0,.29.29c.16,0,.25-.14.29-.29A4.25,4.25,0,0,1-20.3,10.8c.16,0,.29-.12.29-.28A.28.28,0,0,0-20.3,10.23Z" style="fill:none"></path></clipPath><clipPath id="e"><path d="M82.44,8H65.56V24.88H82.44ZM65.17,7.22H82.83a.38.38,0,0,1,.38.39V25.26a.38.38,0,0,1-.38.38H65.17a.38.38,0,0,1-.38-.38V7.61A.38.38,0,0,1,65.17,7.22Z" style="fill:none"></path></clipPath><clipPath id="f"><path d="M79.2,9.83a.29.29,0,0,0,0-.58h-.58a.29.29,0,1,0,0,.58Zm1.41.31a.3.3,0,0,0,.13.25.29.29,0,0,0,.44-.25V9.57A.3.3,0,0,0,81,9.32a.29.29,0,0,0-.43.25Zm0,2.31a.28.28,0,0,0,.13.24.29.29,0,0,0,.44-.24v-.58a.27.27,0,0,0-.14-.24.28.28,0,0,0-.43.24Zm0,2.3a.31.31,0,0,0,.13.25.29.29,0,0,0,.44-.25v-.58a.27.27,0,0,0-.14-.24.28.28,0,0,0-.43.24Zm0,2.3a.31.31,0,0,0,.13.25.29.29,0,0,0,.44-.25v-.57a.29.29,0,0,0-.14-.25.28.28,0,0,0-.43.25Zm0,2.3a.29.29,0,1,0,.57,0v-.57a.3.3,0,0,0-.14-.25.29.29,0,0,0-.43.25Zm0,2.31a.28.28,0,0,0,.13.24.29.29,0,0,0,.44-.24v-.58a.27.27,0,0,0-.14-.24.28.28,0,0,0-.43.24ZM80.26,23a.27.27,0,0,0-.24.14.28.28,0,0,0,.24.43h.58a.28.28,0,0,0,.24-.13.29.29,0,0,0-.24-.44ZM78,23a.3.3,0,0,0-.25.14.29.29,0,0,0,.25.43h.57a.29.29,0,1,0,0-.57Zm-2.3,0a.29.29,0,0,0-.25.14.28.28,0,0,0,.25.43h.57a.31.31,0,0,0,.25-.13.29.29,0,0,0-.25-.44Zm-2.31,0a.27.27,0,0,0-.24.14.28.28,0,0,0,.24.43h.58a.31.31,0,0,0,.25-.13.29.29,0,0,0-.25-.44Zm-2.3,0a.27.27,0,0,0-.24.14.28.28,0,0,0,.24.43h.58a.28.28,0,0,0,.24-.13.29.29,0,0,0-.24-.44Zm-2.3,0a.3.3,0,0,0-.25.14.29.29,0,0,0,.25.43h.57a.3.3,0,0,0,.25-.13.29.29,0,0,0-.25-.44Zm-1.36-.37a.29.29,0,1,0-.57,0v.57a.3.3,0,0,0,.14.25.29.29,0,0,0,.43-.25Zm0-4.61a.31.31,0,0,0-.13-.25.29.29,0,0,0-.44.25v.58a.27.27,0,0,0,.14.24.28.28,0,0,0,.43-.24Zm0,2.3a.28.28,0,0,0-.13-.24.29.29,0,0,0-.44.24v.58a.27.27,0,0,0,.14.24.28.28,0,0,0,.43-.24Z" style="fill:none"></path></clipPath><clipPath id="g"><path d="M73.35,13.24a.3.3,0,0,0,0,.29.3.3,0,0,0,.5.07v0l0-.05,0-.06,0-.05,0-.06,0,0,0-.06,0-.05,0-.06,0,0a.29.29,0,0,0-.29-.45.35.35,0,0,0-.19.12v0l0,0,0,.05,0,.06,0,0,0,.05,0,.06,0,0,0,.05Z" style="fill:none"></path></clipPath><clipPath id="h"><path d="M70,16.13a.29.29,0,0,0,0,.48.31.31,0,0,0,.32,0l0,0,.06,0,.06,0,.06,0,.06,0,.06,0,.06,0,.06,0,0,0a.29.29,0,1,0-.3-.49l0,0-.05,0-.06,0-.05,0-.06,0-.06,0-.06,0,0,0Z" style="fill:none"></path></clipPath><clipPath id="i"><path d="M67.89,17a.29.29,0,0,0-.2.34.29.29,0,0,0,.36.21l0,0,.07,0,.06,0,.07,0,.07,0,.07,0,.06,0,.07,0h0a.29.29,0,0,0-.19-.55l0,0-.06,0-.07,0-.06,0-.06,0-.07,0L68,17l-.07,0Z" style="fill:none"></path></clipPath><clipPath id="j"><path d="M71.8,14.86a.31.31,0,0,0-.1.27.29.29,0,0,0,.47.17h0l.06,0,.05-.05,0,0,0-.05.06,0,0,0,0,0,0,0v0a.29.29,0,0,0-.18-.5.32.32,0,0,0-.21.08h0l0,.05,0,0,0,0,0,0,0,0,0,0-.06.05,0,0Z" style="fill:none"></path></clipPath><clipPath id="k"><path d="M82.46,1.21a.7.7,0,0,0-.51.23l-.12.18h.53a.42.42,0,1,1,0,.84h-1l-3.15,5h.15l4.57-4.93s0,0,.06,0A.7.7,0,0,0,83.22,2,.65.65,0,0,0,83,1.42.76.76,0,0,0,82.46,1.21Zm.66-.74a1.57,1.57,0,0,1,1,1.56,1.55,1.55,0,0,1-.53,1.06l-.07.06L79.42,7.58h3.4a.43.43,0,0,1,.31.12c.08.07,0,.15,0,.25V13.7h-.66l0-5.35H78.63l-3.48,3.76a.45.45,0,0,1-.6.06.41.41,0,0,1-.14-.52l0-.05,2-3.25H65.4v5.36h-.56v0c0-.49-.08-5.9,0-6a.57.57,0,0,1,.26-.12H77l3.22-5.1H68.69a.87.87,0,0,0-.89.85.87.87,0,0,0,.82.85h8.9a.43.43,0,0,1,0,.85H68.69a1.73,1.73,0,0,1-1.77-1.7,1.73,1.73,0,0,1,1.68-1.7H80.8L81.22,1l0,0A1.68,1.68,0,0,1,83.12.47Z" style="fill:none"></path></clipPath><clipPath id="l"><path d="M83.94,4.5h-.83a.42.42,0,0,0,0,.84h.83A1.66,1.66,0,0,1,85.6,7v.84a1.68,1.68,0,0,1-1.66,1.68.42.42,0,1,0,0,.83,2.49,2.49,0,0,0,2.49-2.51V7A2.5,2.5,0,0,0,83.94,4.5Z" style="fill:none"></path></clipPath><clipPath id="m"><path d="M61.92,13.21a.3.3,0,0,0,.25-.14.5.5,0,0,0,.11-.32V11.37a1.67,1.67,0,0,1,1.43-1.84c.19,0,.35-.21.35-.47s-.16-.46-.35-.46c-1.19,0-2.14,1.24-2.14,2.77v1.38a.49.49,0,0,0,.1.32A.33.33,0,0,0,61.92,13.21Z" style="fill:none"></path></clipPath></defs><title>laptop-checkout</title><path d="M25.63,17.34H.36v1.31a.93.93,0,0,0,.92.89c.87,0,22.19,0,23.27,0s1.08-.89,1.08-.89Z" style="fill:none;stroke:#000;stroke-linecap:round;stroke-linejoin:round;stroke-width:0.7437457762705177px"></path><polygon points="23.64 4.6 2.36 4.56 2.36 17.3 23.64 17.34 23.64 4.6" style="fill:none;stroke:#000;stroke-linecap:round;stroke-linejoin:round;stroke-width:0.7307527466714087px"></polygon><path d="M13.6,7.58h0a.3.3,0,0,0-.2.08.37.37,0,0,0-.08.2A.18.18,0,0,0,13.4,8a.34.34,0,0,0,.2.08h.66l.31.79V9l1.25,3.33a.19.19,0,0,0,.1.13.3.3,0,0,0,.15.05H20a.3.3,0,0,0,.15-.05s.08-.07.08-.13L21.47,9v-.1a.37.37,0,0,0-.08-.2.3.3,0,0,0-.2-.08H15l-.3-.84s0-.1-.11-.12a.32.32,0,0,0-.15-.06Zm1.58,1.56h5.63l-1,2.8H16.25Zm3.34,4.25h0a.39.39,0,0,1,.15-.36.57.57,0,0,1,.38-.15.52.52,0,0,1,.38.15.48.48,0,0,1,.15.36.52.52,0,0,1-.15.38.57.57,0,0,1-.38.15.51.51,0,0,1-.53-.53Zm-2,0h0a.51.51,0,0,1,.51-.51.52.52,0,0,1,.38.15.48.48,0,0,1,.15.36.51.51,0,0,1-.53.53.51.51,0,0,1-.36-.15.52.52,0,0,1-.15-.38Z"></path><line x1="4.77" y1="8.84" x2="10.88" y2="8.84" style="fill:none;stroke:#000;stroke-linecap:round;stroke-linejoin:round;stroke-width:0.8042267479508902px"></line><line x1="4.77" y1="11" x2="8.93" y2="11" style="fill:none;stroke:#000;stroke-linecap:round;stroke-linejoin:round;stroke-width:0.8042267479508902px"></line><line x1="4.77" y1="13.15" x2="7.11" y2="13.15" style="fill:none;stroke:#000;stroke-linecap:round;stroke-linejoin:round;stroke-width:0.8042267479508902px"></line></svg>