<svg xmlns="http://www.w3.org/2000/svg" width="189" height="63" viewBox="0 0 189 63"><path d="M3.54,56.72c-.08-.58-.31-.83-.78-.83a.7.7,0,0,0-.75.67.65.65,0,0,0,.21.49c.21.2.21.2,1.56.81s2,1.35,2,2.46C5.78,62,4.66,63,2.8,63A2.81,2.81,0,0,1-.15,61.19,3,3,0,0,1-.31,60H1.88c0,.72.34,1.16.88,1.16a.81.81,0,0,0,.84-.81.71.71,0,0,0-.26-.56c-.25-.22-.25-.22-1.64-.78A2.6,2.6,0,0,1-.17,56.59a2.77,2.77,0,0,1,3-2.54,3,3,0,0,1,2.31,1,2.53,2.53,0,0,1,.57,1.68Z" style="fill:#2a2b2c"></path><path d="M7,54.23H9.22v8.54H7Z" style="fill:#2a2b2c"></path><path d="M10.86,54.23h1.87l3.34,5.37L16,54.23h2.09v8.54h-1.9l-3.3-5.2.08,5.2H10.86Z" style="fill:#2a2b2c"></path><path d="M28.08,59.57a4.37,4.37,0,0,1-4.31,3.37,4.45,4.45,0,0,1-4.5-4.46,4.51,4.51,0,0,1,7.94-2.82,3.84,3.84,0,0,1,.87,1.81H25.8A2.18,2.18,0,0,0,23.73,56a2.35,2.35,0,0,0-2.28,2.48A2.39,2.39,0,0,0,23.74,61a2.23,2.23,0,0,0,2.06-1.44Z" style="fill:#2a2b2c"></path><path d="M29.05,54.23H33.8v1.93H31.14v1.31h2.58v1.92H31.14v1.46H33.8v1.92H29.05Z" style="fill:#2a2b2c"></path><path d="M40.26,56.07h-1.4V54.23h3.58v8.54H40.26Z" style="fill:#2a2b2c"></path><path d="M47.54,60.12a1.61,1.61,0,0,1-.58.09,2.71,2.71,0,0,1-1.46-.4,3.07,3.07,0,0,1-1.33-2.57,3.19,3.19,0,0,1,3.33-3.19,3.41,3.41,0,0,1,2.78,5.34L48.1,62.77H45.61Zm1.16-3a1.18,1.18,0,0,0-2.35,0,1.18,1.18,0,0,0,1.16,1.18A1.17,1.17,0,0,0,48.7,57.12Z" style="fill:#2a2b2c"></path><path d="M54.9,56.07H51.59V54.23h5.57v1.69l-3,6.85h-2.4Z" style="fill:#2a2b2c"></path><path d="M61.08,56.83a3,3,0,0,1,.53,0,2.71,2.71,0,0,1,2.6,2.91,3.2,3.2,0,0,1-3.33,3.25,3.32,3.32,0,0,1-3.37-3.28,4.5,4.5,0,0,1,.8-2.31l2.12-3.12H63ZM60.85,61a1.15,1.15,0,1,0,0-2.3,1.13,1.13,0,0,0-1.17,1.12A1.16,1.16,0,0,0,60.85,61Z" style="fill:#2a2b2c"></path><path d="M0,47.23V.23H189v47Z" style="fill:#0080c4"></path><path d="M33.27,21.43a11.21,11.21,0,0,0-3.5-6.9c-2.7-2.4-5.5-2.9-9.6-2.9h-8.7v24.2H21c3.6,0,6-.5,8.7-3a11.23,11.23,0,0,0,3.5-6.7v9.6h13.9v-5.3h-7.6V26h6.6v-5.2h-6.6v-3.9h7.6v-5.3H33.27Zm-13.1,9.1h-2.5V16.83h2.5c4.6,0,7.1,2.5,7.1,6.8C27.17,28.43,25,30.53,20.17,30.53Zm46.7-4c-.9,1.4-2.9,3.7-6,3.6-4.9-.1-6.8-3.5-6.8-6.5a6.53,6.53,0,0,1,6.4-6.5c4.1-.1,7.1,3.8,7.1,3.8l3.2-5.1a12.89,12.89,0,0,0-10.3-4.7,12.68,12.68,0,0,0-12.9,12.4A12.53,12.53,0,0,0,59,36.23a13.92,13.92,0,0,0,11.5-4.1h5.6v3.6h6V11.63h-6.5C75.67,11.63,67.67,25.23,66.87,26.53Zm9.4.6h-3.2l3.2-5.5Zm7.2-15.5h15.9v5.8h-4.8v18.4h-6.2V17.43h-4.9Zm30,0h6.2v24.2h-6.2v-9.2H107v9.2h-6.2V11.63H107v9.2h6.4v-9.2Zm57.8,0V25l-9.4-13.4h-5.6v8.2a12,12,0,0,0-3.2-5.1,12.66,12.66,0,0,0-8.8-3.6,12.53,12.53,0,0,0-9,3.6,12.17,12.17,0,0,0-3.7,8.8,12.68,12.68,0,0,0,1.9,7h-5.6V11.63h-6.2v24.2h13.5v-3.2a12.14,12.14,0,0,0,9.1,3.7,12.55,12.55,0,0,0,9.1-3.8,12.19,12.19,0,0,0,3-5v8.3h6.3V22.33l9.5,13.5h5.5V11.63Zm-27.1,18.7a6.69,6.69,0,0,1-6.5-6.8,6.4,6.4,0,0,1,6.5-6.4,6.3,6.3,0,0,1,6.3,6.4A6.34,6.34,0,0,1,144.17,30.33Z" style="fill:#fff"></path></svg>