<svg width="30" height="25" viewBox="0 0 30 25" fill="none" xmlns="http://www.w3.org/2000/svg"><path fill-rule="evenodd" clip-rule="evenodd" d="M28.8638 19.4493C28.8638 16.768 26.6632 14.5866 23.9583 14.5866C23.5236 14.5866 23.102 14.6432 22.7003 14.7489L24.2176 19.3089C24.2656 19.4533 24.1865 19.6089 24.0408 19.6566C24.0119 19.666 23.9826 19.6705 23.9538 19.6705C23.8372 19.6705 23.7286 19.5971 23.6901 19.4814L22.1724 14.9203C20.3481 15.6296 19.0529 17.3923 19.0529 19.4493C19.0529 22.1307 21.2535 24.3121 23.9583 24.3121C26.6632 24.3121 28.8638 22.1307 28.8638 19.4493ZM21.5377 13.0114L21.3412 12.4207H16.6657C16.6574 12.4341 16.6495 12.4475 16.6409 12.4608C16.3812 12.8633 13.628 17.1299 12.587 18.7431L12.9419 19.8034L21.5377 13.0114ZM10.9216 19.4493C10.9216 19.5582 10.9179 19.6663 10.9115 19.7737L12.4013 19.9377L12.2013 19.3402C12.1945 19.3506 12.1908 19.3566 12.1908 19.3566C11.7022 19.3069 11.2169 18.7845 11.6002 17.5445L10.0544 12.9269L8.65841 15.0639C10.0286 16.0484 10.9216 17.6473 10.9216 19.4493ZM10.3662 19.4493C10.3662 17.8407 9.57401 16.4123 8.35618 15.5266L5.93946 19.2263L10.359 19.7128C10.3637 19.6255 10.3662 19.5377 10.3662 19.4493ZM10.2974 20.2601L5.43106 19.7243C5.33534 19.7137 5.25202 19.6549 5.21074 19.5686C5.16949 19.4824 5.17625 19.3811 5.2286 19.3011L7.89037 15.2263C7.17356 14.8194 6.34395 14.5866 5.46046 14.5866C2.7556 14.5866 0.555038 16.768 0.555038 19.4493C0.555038 22.1307 2.7556 24.3121 5.46046 24.3121C7.88671 24.3121 9.90684 22.5568 10.2974 20.2601ZM11.9131 16.7286C12.4456 15.4325 13.3266 13.4275 13.7718 12.4207H10.471L11.9131 16.7286ZM9.78416 10.3712L10.2859 11.8701H14.0151L10.3417 10.3712H9.78416ZM12.2007 7.34956C12.2007 7.34956 15.9784 9.95713 16.5065 10.3285C16.9107 10.6127 17.1297 11.1779 16.9185 11.8701H21.1578L20.9079 11.1191H20.2979C20.0722 11.1191 19.8567 11.0257 19.7034 10.8615L15.7387 6.60549L15.5644 6.59581L15.9186 7.55654L12.2007 7.34956ZM29.4195 19.4493C29.4195 22.4343 26.9698 24.8627 23.9586 24.8627C20.9475 24.8627 18.4978 22.4343 18.4978 19.4493C18.4978 17.1489 19.9529 15.1793 21.9985 14.3968L21.7231 13.569L12.9767 20.4799C12.9269 20.5193 12.8657 20.5399 12.8035 20.5399C12.7771 20.5399 12.7505 20.5362 12.7245 20.5285C12.7227 20.528 12.7212 20.5273 12.7194 20.5267L10.8506 20.321C10.4288 22.8929 8.17272 24.8627 5.46087 24.8627C2.44972 24.8627 0 22.4343 0 19.4493C0 16.4644 2.44972 14.0359 5.46087 14.0359C6.45554 14.0359 7.38889 14.3011 8.19299 14.7636L9.83032 12.2571L9.19901 10.3712H7.50659C7.35324 10.3712 7.22887 10.2479 7.22887 10.0959C7.22887 9.94381 7.35324 9.82056 7.50659 9.82056H8.91235C8.91235 9.82056 8.06218 9.4935 7.59922 9.31583C7.10736 9.12706 6.86574 8.86988 6.76604 8.29105C6.68897 7.84386 6.51974 6.74593 6.51974 6.74593C6.70198 6.30916 8.25692 3.1094 14.0021 2.98955C17.1089 2.92472 17.2531 2.92839 17.8889 4.05531C18.0878 4.40803 21.0417 9.58614 21.0417 9.58614L24.4821 10.0088C24.8071 10.0488 25.0511 10.3225 25.0511 10.6472V11.119H25.0472C25.0412 11.4573 24.9751 11.9596 24.6734 12.2959C24.4747 12.5175 24.1993 12.6346 23.877 12.6346C23.7236 12.6346 23.5993 12.5114 23.5993 12.3593C23.5993 12.2073 23.7236 12.084 23.877 12.084C24.043 12.084 24.1641 12.0351 24.2583 11.9301C24.4324 11.736 24.483 11.3842 24.4902 11.119H21.4928L22.5264 14.2252C22.983 14.1021 23.4631 14.0359 23.9586 14.0359C26.9698 14.0359 29.4195 16.4644 29.4195 19.4493ZM17.2225 1.53553L16.8872 0.918975C17.0856 0.735437 18.5992 -0.185557 20.1338 0.0612558C22.2392 0.399792 22.2059 2.30845 22.2325 2.43165L21.9227 2.98006C21.9227 2.98006 21.752 3.02728 21.5143 3.0816C21.3286 3.48034 20.9056 4.39899 20.6596 4.9224C20.5446 5.16728 20.2467 5.12571 19.8988 5.03417C19.5059 4.93089 19.1259 4.83802 19.1259 4.83802C19.1259 4.83802 17.9279 2.88921 17.8616 2.39228C17.8556 2.34741 17.8518 2.30235 17.8502 2.25724C17.5407 2.11564 17.3308 2.01658 17.3308 2.01658L17.2225 1.53553Z" fill="black"></path></svg>