<svg xmlns="http://www.w3.org/2000/svg" width="1309.22" height="488.92" viewBox="0 0 1309.22 488.92">
  <rect x="3.52" y="10.59" width="239.51" height="140" style="fill:#acb3b8"></rect><rect x="3.52" y="173.69" width="239.51" height="140" style="fill:#acb3b8"></rect><rect x="275.34" y="12.74" width="1018.64" height="135.69" style="fill:#898d90"></rect><rect x="275.34" y="173.69" width="530.68" height="140" style="fill:#0080c4"></rect><path d="M638.33,257c-6.69,0-12.8-5.85-12.8-13.72a12.77,12.77,0,0,1,12.8-12.92c6.89,0,12.4,5.66,12.4,12.92C650.93,251.36,645.22,257,638.33,257Zm53.35-37.73v27l-18.5-27h-11v16.54a24.17,24.17,0,0,0-6.3-10.29,24.81,24.81,0,0,0-42.33,17.76,26.09,26.09,0,0,0,3.75,14.13h-11V219.28H594v48.83h26.58v-6.46a23.6,23.6,0,0,0,17.92,7.47,25,25,0,0,0,23.82-17.76v16.75h12.4V240.87l18.71,27.24h10.82V219.28Zm-113.79,0H590.1v48.83H577.89V249.55h-12.8v18.56h-12.2V219.28h12.2v18.56h12.6V219.28Zm-59.06,0h31.3V231h-9.45v37.13H528.47V231h-9.64Zm-14.18,31.28h-6.3l6.3-11.1Zm-18.5-1.22c-1.78,2.83-5.71,7.47-11.82,7.27-9.64-.2-13.38-7.06-13.38-13.12a13,13,0,0,1,12.6-13.12c8.07-.2,14,7.67,14,7.67l6.3-10.29a25.16,25.16,0,0,0-20.27-9.48c-19.69.4-25.4,17.35-25.4,25,0,16.35,12.4,24.62,22.44,25.63a27.1,27.1,0,0,0,22.64-8.27h11v7.26h11.81V219.28h-12.8C503.47,219.28,487.72,246.72,486.15,249.34Zm-91.94,8.08h-4.93V229.77h4.93c9.05,0,14,5,14,13.72C408,253.18,403.66,257.42,394.21,257.42ZM420,239.05a22.82,22.82,0,0,0-6.89-13.92c-5.32-4.85-10.83-5.85-18.9-5.85H377.08v48.83h18.7c7.09,0,11.81-1,17.13-6.05a22.86,22.86,0,0,0,6.89-13.52v19.37h27.37v-10.7h-15v-8.87h13v-10.5h-13V230h15V219.28H420Z" style="fill:#fff"></path><line x1="257.67" y1="14.37" x2="257.67" y2="20.41" style="fill:none;stroke:#acb3b8;stroke-miterlimit:10;stroke-width:1.7271531002653333px"></line><line x1="257.67" y1="32.45" x2="257.67" y2="387.41" style="fill:none;stroke:#acb3b8;stroke-miterlimit:10;stroke-width:1.7271531002653333px;stroke-dasharray:12.03256893157959,12.03256893157959"></line><line x1="257.67" y1="393.42" x2="257.67" y2="399.47" style="fill:none;stroke:#acb3b8;stroke-miterlimit:10;stroke-width:1.7271531002653333px"></line><line x1="818.54" y1="175.69" x2="818.54" y2="181.73" style="fill:none;stroke:#0080c4;stroke-miterlimit:10;stroke-width:1.7271531002653333px"></line><line x1="818.54" y1="194.19" x2="818.54" y2="387.2" style="fill:none;stroke:#0080c4;stroke-miterlimit:10;stroke-width:1.7271531002653333px;stroke-dasharray:12.452410697937012,12.452410697937012"></line><line x1="818.54" y1="393.42" x2="818.54" y2="399.47" style="fill:none;stroke:#0080c4;stroke-miterlimit:10;stroke-width:1.7271531002653333px"></line><line x1="1304.45" y1="14.37" x2="1304.45" y2="20.41" style="fill:none;stroke:#acb3b8;stroke-miterlimit:10;stroke-width:1.7271531002653333px"></line><line x1="1304.45" y1="32.45" x2="1304.45" y2="387.41" style="fill:none;stroke:#acb3b8;stroke-miterlimit:10;stroke-width:1.7271531002653333px;stroke-dasharray:12.03256893157959,12.03256893157959"></line><line x1="1304.45" y1="393.42" x2="1304.45" y2="399.47" style="fill:none;stroke:#acb3b8;stroke-miterlimit:10;stroke-width:1.7271531002653333px"></line><path d="M79.15,407.86h4.69L90,423.47l6.14-15.61h4.69v20.38h-3V411.06l-6.94,17.18H89.07l-6.93-17.18v17.18h-3Z"></path><path d="M117.53,425.84a6.34,6.34,0,0,1-5.74,2.79,7.75,7.75,0,0,1-7.79-8,8.47,8.47,0,0,1,2-5.39,7.54,7.54,0,0,1,6-2.7,6.74,6.74,0,0,1,5.53,2.61v-2.22h2.65v15.3h-2.65Zm-5.47.18a5.44,5.44,0,1,0-5.2-5.38A5.32,5.32,0,0,0,112.06,426Z"></path><path d="M124.74,415.56h-2.06v-2.62h2.06v-5.08h2.86v5.08h2.53v2.62H127.6v12.68h-2.86Z"></path><path d="M139.31,426a4.84,4.84,0,0,0,4.32-2.59h2.89a7.73,7.73,0,0,1-7.33,5.2,8.11,8.11,0,1,1,7.82-8.24,13.47,13.47,0,0,1-.1,1.46H134.29A5.15,5.15,0,0,0,139.31,426Zm4.87-6.36a5,5,0,0,0-5-4.62,5.17,5.17,0,0,0-3.74,1.67,4.76,4.76,0,0,0-1.22,3Z"></path><path d="M150,412.94h2.64v1.37a4.85,4.85,0,0,1,4-1.76v2.95c-2.59.18-3.74,1.52-3.74,4.38v8.36H150Z"></path><path d="M158.72,407.86h2.85v3.38h-2.85Zm0,5.08h2.85v15.3h-2.85Z"></path><path d="M178.12,425.84a6.36,6.36,0,0,1-5.75,2.79,7.74,7.74,0,0,1-7.78-8,8.46,8.46,0,0,1,1.94-5.39,7.54,7.54,0,0,1,6.05-2.7,6.78,6.78,0,0,1,5.54,2.61v-2.22h2.64v15.3h-2.64Zm-5.48.18a5.44,5.44,0,1,0-5.2-5.38A5.32,5.32,0,0,0,172.64,426Z"></path><path d="M184.44,407.86h2.86v20.38h-2.86Z"></path><path d="M217.5,423.22a10.43,10.43,0,0,1-9.24,5.41A10.61,10.61,0,0,1,197.8,418a10.54,10.54,0,0,1,19.85-4.93h-3.59a7.17,7.17,0,0,0-5.71-2.85,7.67,7.67,0,0,0-7.57,7.78,7.81,7.81,0,0,0,7.51,7.91,7.13,7.13,0,0,0,5.56-2.68Z"></path><path d="M227.54,412.55a8.1,8.1,0,0,1,8.27,8.06,8.34,8.34,0,0,1-2.65,5.87,8,8,0,0,1-5.59,2.15,8,8,0,1,1,0-16.08Zm0,13.47a5.45,5.45,0,0,0,5.38-5.38,5.38,5.38,0,1,0-10.76-.06A5.44,5.44,0,0,0,227.57,426Z"></path><path d="M244.94,417c-.22-1.25-.86-1.86-1.92-1.86a1.75,1.75,0,0,0-1.89,1.68c0,1,.49,1.36,2.38,1.94a8.15,8.15,0,0,1,3.1,1.55,4.85,4.85,0,0,1,1.49,3.44,5.14,5.14,0,0,1-5.29,4.86,5.22,5.22,0,0,1-4.6-2.58,5.5,5.5,0,0,1-.63-2.8h2.88c.13,1.8,1,2.77,2.5,2.77a2.06,2.06,0,0,0,2.28-2c0-1.15-.61-1.7-2.68-2.4a8,8,0,0,1-2.89-1.37,3.71,3.71,0,0,1-1.4-2.95,4.63,4.63,0,0,1,4.81-4.74,4.45,4.45,0,0,1,4.68,4.47Z"></path><path d="M251.53,415.56h-2.06v-2.62h2.06v-5.08h2.86v5.08h2.53v2.62h-2.53v12.68h-2.86Z"></path><path d="M527.37,407.47h7.2a9,9,0,0,1,6.88,2.74,10.89,10.89,0,0,1,3,7.54,10.77,10.77,0,0,1-2.56,7.11c-1.82,2-4.44,3-8.18,3h-6.32Zm5.38,17.64c2.83,0,4.74-.52,6.23-1.71a7.19,7.19,0,0,0,2.47-5.65,7.73,7.73,0,0,0-2.19-5.51,6.69,6.69,0,0,0-5.23-2h-3.68v14.9Z"></path><path d="M554.56,425.62a4.85,4.85,0,0,0,4.31-2.58h2.89a7.73,7.73,0,0,1-7.33,5.2,8.11,8.11,0,0,1,.06-16.21,7.9,7.9,0,0,1,7.76,8c0,.27,0,.91-.09,1.46H549.54A5.14,5.14,0,0,0,554.56,425.62Zm4.86-6.35a5,5,0,0,0-5-4.62,5.16,5.16,0,0,0-3.74,1.67,4.7,4.7,0,0,0-1.21,2.95Z"></path><path d="M579.52,422.8A7.91,7.91,0,1,1,572,412.15a7.7,7.7,0,0,1,7.48,5.51h-3.16c-1.16-2.07-2.37-2.89-4.29-2.89a5.08,5.08,0,0,0-5,5.41,5.22,5.22,0,0,0,4.89,5.44,5,5,0,0,0,4.41-2.82Z"></path><path d="M594.79,425.44a6.34,6.34,0,0,1-5.75,2.8,7.75,7.75,0,0,1-7.78-8,8.49,8.49,0,0,1,1.94-5.38,7.54,7.54,0,0,1,6.06-2.71,6.75,6.75,0,0,1,5.53,2.62v-2.22h2.65v15.29h-2.65Zm-5.47.18a5.43,5.43,0,1,0-5.2-5.38A5.32,5.32,0,0,0,589.32,425.62Z"></path><path d="M602,415.16h-2.07v-2.61H602v-5.08h2.86v5.08h2.52v2.61h-2.52v12.68H602Z"></path><path d="M609.72,407.47h2.86v6.66a5,5,0,0,1,4.38-2c3.77,0,6.24,2.44,6.24,6.11v9.58h-2.86v-8.63a5,5,0,0,0-.64-3,3.47,3.47,0,0,0-3.07-1.46c-2.47,0-4,1.73-4,4.44v8.63h-2.86Z"></path><path d="M626.76,407.47h2.86v20.37h-2.86Z"></path><path d="M640.84,412.15a8.1,8.1,0,0,1,8.27,8.06,8.37,8.37,0,0,1-2.65,5.87,8,8,0,0,1-5.59,2.16,8,8,0,1,1,0-16.09Zm0,13.47a5.45,5.45,0,0,0,5.38-5.38,5.39,5.39,0,1,0-10.77-.06A5.45,5.45,0,0,0,640.87,425.62Z"></path><path d="M652.06,412.55h2.64v1.61a5.43,5.43,0,0,1,4.54-2,6,6,0,0,1,6.35,6.36v9.36h-2.86v-8.33a6,6,0,0,0-.64-3.22,3.7,3.7,0,0,0-3.19-1.55c-2.46,0-3.95,1.79-3.95,4.77v8.33h-2.89Z"></path><path d="M677,407.47h6.32c2.5,0,4.2.55,5.42,1.7a6.73,6.73,0,0,1,1.88,4.84,6,6,0,0,1-2.55,5.17,7.1,7.1,0,0,1-3.29,1.09l5.72,7.57h-3.74L680,418.39v9.45h-3ZM682,418a6.88,6.88,0,0,0,3.8-.79,3.53,3.53,0,0,0,1.82-3.19c0-2.31-1.79-3.8-4.53-3.8H680V418Z"></path><path d="M700.32,425.62a4.85,4.85,0,0,0,4.32-2.58h2.89a7.73,7.73,0,0,1-7.33,5.2,8.11,8.11,0,0,1,.06-16.21,7.9,7.9,0,0,1,7.76,8c0,.27,0,.91-.09,1.46H695.31A5.13,5.13,0,0,0,700.32,425.62Zm4.87-6.35a5,5,0,0,0-5-4.62,5.15,5.15,0,0,0-3.74,1.67,4.7,4.7,0,0,0-1.21,2.95Z"></path><path d="M711.21,415.16h-2.06v-2.61h2.06v-5.08h2.86v5.08h2.53v2.61h-2.53v12.68h-2.86Z"></path><path d="M731.41,425.44a6.36,6.36,0,0,1-5.75,2.8,7.76,7.76,0,0,1-7.79-8,8.45,8.45,0,0,1,2-5.38,7.52,7.52,0,0,1,6-2.71,6.78,6.78,0,0,1,5.54,2.62v-2.22h2.64v15.29h-2.64Zm-5.48.18a5.43,5.43,0,1,0-5.2-5.38A5.32,5.32,0,0,0,725.93,425.62Z"></path><path d="M737.73,407.47h2.86v3.37h-2.86Zm0,5.08h2.86v15.29h-2.86Z"></path><path d="M744.24,407.47h2.86v20.37h-2.86Z"></path><path d="M758.6,407.47h7.08a5.81,5.81,0,0,1,6,6.08,5.92,5.92,0,0,1-1.61,4.23c-1.37,1.49-2.86,2-5.59,2h-2.92v8h-3Zm6,9.61a3.79,3.79,0,0,0,2.92-.88,3.74,3.74,0,0,0,1.15-2.65,3.53,3.53,0,0,0-1.06-2.49c-.73-.67-1.4-.85-3.07-.85h-3v6.87Z"></path><path d="M774.17,412.55h2.64v1.37a4.83,4.83,0,0,1,4-1.77v3c-2.59.18-3.74,1.52-3.74,4.38v8.36h-2.86Z"></path><path d="M782.87,407.47h2.85v3.37h-2.85Zm0,5.08h2.85v15.29h-2.85Z"></path><path d="M804.06,422.8a7.91,7.91,0,1,1-7.48-10.65,7.7,7.7,0,0,1,7.48,5.51H800.9c-1.16-2.07-2.37-2.89-4.29-2.89a5.08,5.08,0,0,0-5,5.41,5.22,5.22,0,0,0,4.9,5.44,5,5,0,0,0,4.41-2.82Z"></path><path d="M813.7,425.62A4.85,4.85,0,0,0,818,423h2.89a7.73,7.73,0,0,1-7.33,5.2,8.11,8.11,0,0,1,.06-16.21,7.9,7.9,0,0,1,7.76,8c0,.27,0,.91-.09,1.46H808.69A5.13,5.13,0,0,0,813.7,425.62Zm4.87-6.35a5,5,0,0,0-5-4.62,5.15,5.15,0,0,0-3.74,1.67,4.7,4.7,0,0,0-1.21,2.95Z"></path><path d="M1017.32,410.21h-3.92v-2.74h10.79v2.74h-3.89v17.63h-3Z"></path><path d="M1025.71,412.55h2.65v1.37a4.81,4.81,0,0,1,4-1.77v3c-2.58.18-3.74,1.52-3.74,4.38v8.36h-2.86Z"></path><path d="M1046.7,425.44a6.36,6.36,0,0,1-5.75,2.8,7.76,7.76,0,0,1-7.79-8,8.45,8.45,0,0,1,1.95-5.38,7.52,7.52,0,0,1,6.05-2.71,6.78,6.78,0,0,1,5.54,2.62v-2.22h2.64v15.29h-2.64Zm-5.48.18a5.43,5.43,0,1,0-5.2-5.38A5.32,5.32,0,0,0,1041.22,425.62Z"></path><path d="M1065.74,425.68a6.66,6.66,0,0,1-5.51,2.59,7.87,7.87,0,0,1-7.88-8.15,8.43,8.43,0,0,1,2.13-5.53,6.92,6.92,0,0,1,5.51-2.44,7.47,7.47,0,0,1,5.53,2.4v-7.08h2.86v20.37h-2.64Zm-5.36,0a5.43,5.43,0,0,0,5.36-5.56,5.24,5.24,0,0,0-5.42-5.32,5.17,5.17,0,0,0-5.11,5.41A5.29,5.29,0,0,0,1060.38,425.65Z"></path><path d="M1072,407.47h2.86v3.37H1072Zm0,5.08h2.86v15.29H1072Z"></path><path d="M1078.93,415.16h-2.06v-2.61h2.06v-5.08h2.86v5.08h2.53v2.61h-2.53v12.68h-2.86Z"></path><path d="M1086.66,407.47h2.86v3.37h-2.86Zm0,5.08h2.86v15.29h-2.86Z"></path><path d="M1100.74,412.15a8.1,8.1,0,0,1,8.27,8.06,8.36,8.36,0,0,1-2.64,5.87,8,8,0,0,1-5.6,2.16,8,8,0,1,1,0-16.09Zm0,13.47a5.45,5.45,0,0,0,5.38-5.38,5.38,5.38,0,1,0-10.76-.06A5.44,5.44,0,0,0,1100.77,425.62Z"></path><path d="M1112,412.55h2.65v1.61a5.4,5.4,0,0,1,4.53-2,6,6,0,0,1,6.36,6.36v9.36h-2.86v-8.33a6.07,6.07,0,0,0-.64-3.22,3.72,3.72,0,0,0-3.19-1.55c-2.47,0-4,1.79-4,4.77v8.33H1112Z"></path><path d="M1141.86,425.44a6.35,6.35,0,0,1-5.75,2.8,7.75,7.75,0,0,1-7.78-8,8.44,8.44,0,0,1,1.94-5.38,7.52,7.52,0,0,1,6-2.71,6.78,6.78,0,0,1,5.54,2.62v-2.22h2.64v15.29h-2.64Zm-5.48.18a5.43,5.43,0,1,0-5.2-5.38A5.32,5.32,0,0,0,1136.38,425.62Z"></path><path d="M1148.18,407.47H1151v20.37h-2.86Z"></path><path d="M1162.54,407.47h6.33c2.49,0,4.19.55,5.41,1.7a6.73,6.73,0,0,1,1.88,4.84,6,6,0,0,1-2.55,5.17,7.1,7.1,0,0,1-3.29,1.09l5.72,7.57h-3.74l-6.78-9.45v9.45h-3Zm5,10.52a6.86,6.86,0,0,0,3.8-.79,3.52,3.52,0,0,0,1.82-3.19c0-2.31-1.79-3.8-4.53-3.8h-3.13V418Z"></path><path d="M1185.87,425.62a4.85,4.85,0,0,0,4.31-2.58h2.89a7.73,7.73,0,0,1-7.32,5.2,8.11,8.11,0,0,1,.06-16.21,7.9,7.9,0,0,1,7.75,8c0,.27,0,.91-.09,1.46h-12.62A5.14,5.14,0,0,0,1185.87,425.62Zm4.86-6.35a5,5,0,0,0-5-4.62,5.17,5.17,0,0,0-3.75,1.67,4.76,4.76,0,0,0-1.21,2.95Z"></path><path d="M1196.75,415.16h-2.06v-2.61h2.06v-5.08h2.86v5.08h2.53v2.61h-2.53v12.68h-2.86Z"></path><path d="M1217,425.44a6.35,6.35,0,0,1-5.75,2.8,7.75,7.75,0,0,1-7.78-8,8.49,8.49,0,0,1,1.94-5.38,7.52,7.52,0,0,1,6.05-2.71,6.78,6.78,0,0,1,5.54,2.62v-2.22h2.64v15.29H1217Zm-5.48.18a5.43,5.43,0,1,0-5.2-5.38A5.33,5.33,0,0,0,1211.47,425.62Z"></path><path d="M1223.27,407.47h2.86v3.37h-2.86Zm0,5.08h2.86v15.29h-2.86Z"></path><path d="M1229.78,407.47h2.86v20.37h-2.86Z"></path><path d="M1244.14,407.47h7.08a5.82,5.82,0,0,1,6,6.08,5.93,5.93,0,0,1-1.62,4.23c-1.37,1.49-2.86,2-5.59,2h-2.92v8h-3Zm6,9.61a3.79,3.79,0,0,0,2.92-.88,3.74,3.74,0,0,0,1.15-2.65,3.53,3.53,0,0,0-1.06-2.49c-.73-.67-1.4-.85-3.07-.85h-3v6.87Z"></path><path d="M1259.71,412.55h2.65v1.37a4.81,4.81,0,0,1,4-1.77v3c-2.59.18-3.74,1.52-3.74,4.38v8.36h-2.86Z"></path><path d="M1268.41,407.47h2.86v3.37h-2.86Zm0,5.08h2.86v15.29h-2.86Z"></path><path d="M1289.6,422.8a7.91,7.91,0,1,1-7.48-10.65,7.7,7.7,0,0,1,7.48,5.51h-3.16c-1.15-2.07-2.37-2.89-4.29-2.89a5.08,5.08,0,0,0-5,5.41,5.22,5.22,0,0,0,4.89,5.44,5,5,0,0,0,4.41-2.82Z"></path><path d="M1299.25,425.62a4.85,4.85,0,0,0,4.31-2.58h2.89a7.73,7.73,0,0,1-7.33,5.2,8.11,8.11,0,0,1,.06-16.21,7.9,7.9,0,0,1,7.76,8c0,.27,0,.91-.09,1.46h-12.62A5.14,5.14,0,0,0,1299.25,425.62Zm4.86-6.35a5,5,0,0,0-5-4.62,5.16,5.16,0,0,0-3.74,1.67,4.7,4.7,0,0,0-1.21,2.95Z"></path>
</svg>