<svg class=" " width="18" height="18" viewBox="0 0 18 18" fill="none" xmlns="http://www.w3.org/2000/svg">
    <path d="M17.4193 16.0238L13.0187 11.6232C13.4819 11.0056 13.868 10.3108 14.1768 9.61592C14.4856 8.84389 14.5628 8.07186 14.5628 7.22263C14.5628 6.21899 14.4084 5.29255 14.0224 4.44332C13.6364 3.59408 13.1731 2.82205 12.4783 2.20443C11.8607 1.5868 11.0887 1.04638 10.2394 0.660364C9.39018 0.274349 8.46375 0.0427399 7.46011 0.0427399C6.45647 0.0427399 5.53003 0.197146 4.68079 0.583161C3.83156 0.969177 3.05953 1.4324 2.44191 2.12722C1.82428 2.82205 1.28386 3.51688 0.897843 4.36611C0.511828 5.21535 0.357422 6.14178 0.357422 7.14543C0.357422 8.14907 0.511828 9.0755 0.897843 9.92474C1.28386 10.774 1.74708 11.546 2.44191 12.1636C3.05953 12.7813 3.83156 13.3217 4.68079 13.7077C5.53003 14.0937 6.45647 14.2481 7.46011 14.2481C8.15493 14.2481 8.84976 14.1709 9.54459 13.9393C10.2394 13.7077 10.857 13.4761 11.3975 13.0901L15.8752 17.5678C15.9524 17.645 16.1069 17.7222 16.2613 17.7995C16.4157 17.8767 16.5701 17.8767 16.7245 17.8767C17.0333 17.8767 17.2649 17.7995 17.4965 17.5678C17.7281 17.3362 17.8053 17.1046 17.8053 16.7958C17.8053 16.6414 17.8053 16.487 17.7281 16.3326C17.5737 16.2554 17.4965 16.101 17.4193 16.0238ZM2.59631 7.14543C2.59631 6.4506 2.75072 5.83297 2.98233 5.21535C3.21394 4.59772 3.59995 4.1345 4.06317 3.67129C4.52639 3.20807 4.98961 2.89925 5.60723 2.59044C6.22486 2.28163 6.84248 2.20443 7.53731 2.20443C8.23214 2.20443 8.84976 2.35883 9.46739 2.59044C10.085 2.82205 10.5482 3.20807 11.0114 3.67129C11.4747 4.1345 11.7835 4.59772 12.0923 5.21535C12.3239 5.83297 12.4783 6.4506 12.4783 7.14543C12.4783 7.84025 12.3239 8.45788 12.0923 9.0755C11.8607 9.69313 11.4747 10.1563 11.0114 10.6196C10.5482 11.0828 10.085 11.3916 9.46739 11.7004C8.84976 11.932 8.23214 12.0864 7.53731 12.0864C6.84248 12.0864 6.22486 11.932 5.60723 11.7004C4.98961 11.4688 4.52639 11.0828 4.06317 10.6196C3.59995 10.1563 3.29114 9.69313 2.98233 9.0755C2.75072 8.45788 2.59631 7.84025 2.59631 7.14543Z" fill="black"></path>
</svg>