<svg width="26" height="23" viewBox="0 0 26 23" fill="none" xmlns="http://www.w3.org/2000/svg"><path fill-rule="evenodd" clip-rule="evenodd" d="M23.5177 14.4063C22.9667 13.6884 21.3856 11.502 21.3856 11.502L20.7884 8.34262L17.8526 10.7519L17.8116 11.3288C17.8116 11.3288 18.6984 13.461 19.0096 14.2178C19.3045 14.9346 19.9068 16.1662 18.7459 17.1559C17.6161 18.1192 16.8149 18.7806 16.2949 19.2023L17.1545 19.4158L23.5177 14.4063ZM13.9138 18.6109L14.3547 18.7204C14.673 18.4762 15.018 18.2107 15.2479 18.0313C15.7923 17.6066 16.7278 16.8252 16.7278 16.8252C17.4566 16.1479 17.3436 15.5712 17.019 14.8876L16.1529 12.8716L15.7474 12.8626L16.6515 14.9625C16.9432 15.6314 17.0202 16.1279 16.4385 16.6288L13.9138 18.6109ZM25.2326 15.0308C25.2326 15.0308 24.4063 15.296 23.7811 14.7136L17.6512 19.5395L21.365 20.4622C21.365 20.4622 21.7208 20.3438 23.0558 19.9196C23.8383 19.6709 23.7478 20.3164 23.3317 20.4551C22.4509 20.7486 20.6349 21.3246 20.6349 21.3246C20.6349 21.3246 20.306 21.4651 19.4807 21.2397C19.0497 21.1005 16.1281 20.2069 13.0696 19.2736L11.7812 20.2851L16.5765 21.947C16.5765 21.947 18.0511 21.5766 18.7397 21.4068C19.4284 21.2369 19.4124 21.866 19.005 21.9779C18.105 22.225 15.8053 22.8822 15.8053 22.8822C15.8053 22.8822 15.4642 22.9912 14.6648 22.6896C13.9458 22.38 6.1068 19.1632 2.79857 17.8062L3.99263 17.5859L10.0785 19.695L11.1379 18.6843C9.06495 18.0522 7.16225 17.4728 6.19773 17.1791L7.31831 16.9723L11.7726 18.0789L14.2045 15.7591C14.2045 15.7591 13.7805 14.8688 12.9517 13.3214C12.549 12.5696 11.7577 11.2888 12.3016 10.2439C12.4403 9.9774 13.7239 8.24107 13.7239 8.24107L15.7667 5.72242L13.353 6.34555L11.6419 10.1338C11.6419 10.1338 11.0108 9.73724 11.0583 9.14942L0.147828 11.9922L0.0419922 11.6046L11.1646 8.70654C11.6818 6.81483 12.0213 5.50826 12.0663 5.34791C12.1121 5.18506 12.19 5.09066 12.3683 5.02515C13.4611 4.62355 16.8367 3.53728 17.2231 3.4564C17.5856 3.38053 18.0357 3.51894 18.5426 3.81659L21.8672 5.71167C22.3675 5.99399 22.436 6.46619 22.5363 7.47576C22.7861 9.99124 22.9029 11.1232 22.9029 11.1232L25.2326 15.0308ZM23.6963 3.67186L23.4044 3.60811C23.4011 3.61028 23.3979 3.61257 23.3946 3.61473C23.1098 3.79571 22.3401 4.4387 21.825 4.76487C21.5588 4.93346 21.3493 4.87881 21.0593 4.71396C20.7693 4.54903 20.0756 4.15987 20.0756 4.15987C20.0756 4.15987 20.1892 3.04861 20.3396 2.20189C20.2558 2.04209 20.1804 1.86176 20.1366 1.67275C20.5498 0.178869 21.642 -0.0622481 22.6262 0.0400162C23.5914 0.140315 24.2436 0.822344 24.4128 1.22354C25.0148 2.33023 23.6963 3.67186 23.6963 3.67186Z" fill="black"></path></svg>