<svg width="16" height="27" viewBox="0 0 16 27" fill="none" xmlns="http://www.w3.org/2000/svg"><path fill-rule="evenodd" clip-rule="evenodd" d="M15.3197 5.05887L15.2936 5.47C15.2577 6.03537 14.7256 6.4709 14.1112 6.43789L13.5463 6.40757C13.088 6.8716 12.6141 7.34483 12.4734 7.4615C12.0425 7.81877 11.9195 7.8535 11.2485 7.7245C10.5616 7.5924 9.19149 7.18962 9.19149 7.18962L9.49521 11.6525L10.6559 12.9375L12.3159 16.662L10.9157 17.2283L10.9865 17.4526L11.9318 17.2192L12.2176 18.1784L12.1293 26.4305C11.067 26.5195 10.6161 25.7488 10.4796 24.8076C10.3432 23.8662 9.63961 18.9202 9.63961 18.9202L8.50844 16.5548L7.66731 18.7972L5.45576 18.7265L5.33385 18.9069L6.5128 19.0547L6.19102 19.9053L0.800982 26.5195C-0.159707 26.0008 0.0188373 24.9978 0.521422 24.1408C1.02401 23.2839 3.96655 18.6836 3.96655 18.6836L4.46538 15.5751C4.46538 15.5751 4.10056 14.4577 4.10056 13.6733C4.10056 12.8889 4.4356 12.0356 4.4356 12.0356C4.4356 12.0356 3.02205 7.35681 3.01431 7.32994C3.43197 7.73533 4.15326 8.30366 5.32664 9.26452C5.51916 9.42211 5.70876 9.50573 5.89427 9.50573C6.05777 9.50573 6.21581 9.44315 6.3613 9.31764C6.91072 8.84379 7.70065 7.80073 7.72995 7.76348L7.45952 7.7641C7.45245 7.77307 6.74789 8.62106 6.21345 9.082C6.06959 9.20614 5.83629 9.33558 5.4731 9.02773C3.58064 7.42354 2.83822 6.73231 2.73437 6.22386C2.63364 5.73101 2.82976 5.11963 3.65711 4.54891C4.48441 3.97824 5.61129 3.85538 5.61182 3.85498L6.29093 4.66992H6.55599L6.45848 4.52023C6.45838 4.5201 6.30438 4.30395 6.00273 3.82064C5.75449 3.4229 5.42247 2.77082 5.40465 2.535C5.37871 2.1933 5.45903 1.84801 5.62835 1.52009C6.11676 0.572668 7.35639 0.300214 8.25871 0.693627C9.07928 1.05151 9.55929 1.99001 9.27627 2.86027C8.73617 2.89324 7.9021 3.03461 7.54165 3.582C7.14652 4.1821 7.39212 4.86914 7.69407 5.25805H7.9842L7.86997 5.14248C7.60616 4.80272 7.41907 4.22241 7.75978 3.70499C8.0318 3.29182 8.74261 3.16238 9.20614 3.12234H9.81796C10.4335 3.12234 10.9371 3.58567 10.9371 4.15192V4.56381C10.9371 4.85632 10.8025 5.12113 10.5877 5.30905L11.7248 6.15041L12.1257 5.77419C12.0542 5.62813 12.0186 5.46492 12.0294 5.29473L12.0555 4.88359C12.0914 4.31827 12.6235 3.88274 13.2379 3.91571L14.2677 3.97099C14.8821 4.004 15.3556 4.49354 15.3197 5.05887Z" fill="black"></path></svg>