<svg width="20" height="30" viewBox="0 0 20 30" fill="none" xmlns="http://www.w3.org/2000/svg"><path fill-rule="evenodd" clip-rule="evenodd" d="M2.12882 6.30449C2.05561 5.89791 1.92068 5.10583 1.84721 4.66561L1.27643 4.7639C0.91969 4.8253 0.669895 5.41478 0.534039 6.51596C0.506111 6.71871 0.528391 6.84477 0.603677 6.91554C0.690828 6.99666 0.882125 7.01282 1.17135 6.96312L1.4056 6.92279C1.71099 6.87719 1.97478 6.83772 2.08291 6.69044C2.14535 6.60558 2.16032 6.47938 2.12882 6.30449ZM2.55953 6.23025C2.61259 6.52471 2.57279 6.7569 2.43797 6.9401C2.22305 7.23283 1.85926 7.28775 1.47397 7.34536L1.24713 7.38447C1.14014 7.40286 1.01532 7.41948 0.887337 7.41948C0.679459 7.41948 0.463188 7.37571 0.300958 7.22463C0.0298678 6.96989 0.0824589 6.58748 0.0997648 6.46178C0.172304 5.87383 0.343031 4.49009 1.20034 4.34246L2.02735 4.20004L8.32818 3.10581C8.36461 3.18981 8.40419 3.27239 8.44963 3.35218C8.47383 3.39459 8.50564 3.44328 8.55212 3.50144L2.27787 4.59112C2.35082 5.0283 2.48621 5.82316 2.55953 6.23025ZM0.765518 6.06749L0.86013 6.79138C0.903136 6.82324 0.949976 6.84001 1.01402 6.84376L0.848369 5.57671C0.804793 5.74573 0.781581 5.92431 0.765518 6.06749ZM0.972125 5.25575L1.17834 6.83301C1.19866 6.83013 1.21995 6.82683 1.24291 6.82283C1.26974 6.81822 1.29622 6.81366 1.32223 6.8092L1.09922 5.1031C1.04979 5.14256 1.00782 5.19485 0.972125 5.25575ZM1.2614 5.02866C1.25839 5.02922 1.25559 5.03018 1.25259 5.03069L1.48176 6.78335C1.53207 6.7752 1.58015 6.76618 1.62513 6.75503L1.39632 5.00551L1.2614 5.02866ZM1.66285 4.95973L1.55549 4.97817L1.78026 6.69714C1.82523 6.67257 1.86451 6.64197 1.89482 6.60073C1.90062 6.59283 1.90586 6.58269 1.91088 6.57155L1.69933 4.95344L1.66285 4.95973ZM8.87441 3.12087C8.91866 3.19864 9.00519 3.29525 9.11965 3.40292C9.74463 3.99087 11.2052 4.90956 11.2052 4.90956C11.2052 4.90956 11.5888 4.8438 12.0166 4.77084C12.3955 4.70624 12.7202 4.69023 12.7213 4.40566C12.723 3.98413 12.7304 2.13242 12.7306 2.06716C12.7353 0.914002 11.7388 0.0235844 10.6921 0.0195312H10.6845C9.63949 0.0195312 8.5998 0.83375 8.59519 1.99937C8.59373 2.3641 8.66819 2.711 8.82172 3.0201C8.83856 3.05404 8.8556 3.08789 8.87441 3.12087ZM17.9956 6.59187C16.7325 6.84772 12.5024 7.68367 12.5024 7.68367L12.6492 7.96506L16.1628 7.48147L17.1956 12.0926V16.7256L15.2925 29.4391C15.2925 29.4391 13.9361 29.4429 13.9361 28.1432V20.7805L14.6218 17.171V15.9371L12.9056 22.7L8.23903 29.3514C7.49343 29.0286 7.23669 28.3147 7.60825 27.5653C8.17664 26.419 10.763 21.5604 10.763 21.5604V16.438C10.763 14.0787 11.7497 13.0385 11.7497 13.0385C11.7497 13.0385 10.4661 10.1694 9.58474 8.33065C9.10847 7.33743 9.56531 5.72952 11.2472 5.44078L17.6095 4.35232L17.3622 2.19074L16.5724 2.32764L15.7993 4.11962L13.7846 4.4689L15.0226 2.59626L14.7436 2.64459C14.7178 2.64905 14.6921 2.65123 14.6667 2.65123C14.5356 2.65123 14.4139 2.59327 14.3323 2.49858L13.2137 2.69247L13.2154 2.25767L14.2563 2.07726C14.308 1.93854 14.4315 1.82966 14.5908 1.802L17.2646 1.33858L17.2141 0.897093C18.2865 0.897093 18.5148 1.67661 18.6836 2.3553C18.8525 3.03389 19.0264 3.733 19.1508 4.23326C19.4852 5.57762 19.3655 6.31463 17.9956 6.59187Z" fill="black"></path></svg>