<svg xmlns="http://www.w3.org/2000/svg" class="de-Icon de-MenuList-icon" width="14" height="20" viewBox="0 0 14 20" role="presentation">
  <path d="M13,10c0,0.1,0,0.1,0,0.2c0,0.1-0.1,0.1-0.1,0.2l-8.3,8.3c-0.1,0.1-0.1,0.1-0.2,0.1s-0.1,0-0.2,0c-0.1,0-0.2,0-0.2,0
    s-0.1-0.1-0.2-0.1l-0.9-0.9c0-0.1-0.1-0.1-0.1-0.2s-0.1-0.2-0.1-0.2c0-0.1,0-0.1,0.1-0.2s0.1-0.1,0.1-0.2l7-7l-7-7
    c0,0-0.1-0.1-0.1-0.2S2.6,2.6,2.6,2.6s0-0.1,0.1-0.2s0.1-0.1,0.1-0.2l0.9-0.9c0,0,0.1-0.1,0.2-0.1c0.1,0,0.2,0,0.2,0
    c0.1,0,0.1,0,0.2,0c0.1,0,0.1,0.1,0.2,0.1l8.3,8.3c0.1,0,0.1,0.1,0.1,0.2C13,9.8,13,9.9,13,10C13,10,13,10,13,10z"></path>
</svg>