<svg width="21" height="30" viewBox="0 0 21 30" fill="none" xmlns="http://www.w3.org/2000/svg"><path fill-rule="evenodd" clip-rule="evenodd" d="M3.27591 27.7056C2.93229 27.7373 2.69483 27.4632 2.63266 27.3761C2.46544 27.1419 0.828197 24.8434 0.828197 24.8434C0.543518 24.4437 0.678357 24.1698 0.700593 24.1304C0.700646 24.1303 0.700646 24.1303 0.700699 24.1302L0.70878 24.118C0.792282 23.9914 0.773743 23.8174 0.653375 23.7242C0.517321 23.6188 0.322218 23.6529 0.229948 23.7928L0.209244 23.8242C0.193347 23.8487 -0.174201 24.4332 0.352904 25.1733C0.352904 25.1733 1.99205 27.486 2.16582 27.7176C2.27626 27.8647 2.40666 27.9859 2.54963 28.0778C2.78952 28.232 3.06491 28.3035 3.3405 28.2757C3.5345 28.2561 3.66432 28.0521 3.56988 27.858C3.51728 27.7497 3.39702 27.6944 3.27591 27.7056ZM15.5753 28.6124C15.4036 28.908 15.0399 28.9418 14.932 28.9418C14.6417 28.9418 11.7954 28.939 11.7954 28.939C11.3005 28.9385 11.1513 28.6719 11.1315 28.6313C11.1315 28.6312 11.1315 28.6312 11.1315 28.6311L11.126 28.6176C11.0693 28.4773 10.9145 28.3919 10.7679 28.4354C10.6023 28.4845 10.5182 28.6616 10.5809 28.8167L10.595 28.8514C10.6061 28.8784 10.8783 29.5116 11.7947 29.5126C11.7947 29.5126 14.6539 29.522 14.9458 29.5152C15.1312 29.5108 15.3067 29.4754 15.4652 29.413C15.731 29.3082 15.9488 29.1271 16.0845 28.8887C16.18 28.7208 16.086 28.4986 15.8708 28.463C15.7508 28.4431 15.6358 28.5083 15.5753 28.6124ZM20.0786 11.8663C19.9233 11.8071 16.7187 10.6268 16.7187 10.6268C16.7187 10.6268 15.0703 6.53428 14.9469 6.24036C14.8058 5.90399 14.4163 5.69918 14.0705 5.65418C13.7439 5.61169 11.5785 5.32376 11.2555 5.28158C10.9325 5.2394 10.2684 5.12083 9.66057 5.4525C9.66057 5.4525 6.0172 7.44352 5.85226 7.53612C5.66275 7.64243 5.5267 7.78812 5.43998 7.97244C5.36635 8.12891 3.31814 12.4827 3.31814 12.4827C3.45034 12.6876 4.16182 12.6922 4.54152 12.1673C4.92127 11.6423 6.70693 9.11965 6.70693 9.11965L8.78023 8.21411L9.05741 12.8667C9.05741 12.8667 8.26237 13.7673 7.92793 15.1343C7.54512 16.6992 6.68216 20.2704 6.68216 20.2704C6.68216 20.2704 3.38511 23.3391 2.98561 23.7136C1.86812 24.761 2.30703 25.8841 2.53371 26.1078L8.34249 21.6911L10.972 17.4402L12.0489 21.6697C12.0489 21.6697 12.2973 25.9574 12.3792 26.9318C12.461 27.9061 13.4663 28.4752 13.9673 28.4172C13.9687 28.4171 14.1262 19.0186 14.1262 18.5495C14.1262 18.0804 14.123 16.0732 14.123 15.1214C14.123 14.1774 13.7672 12.9879 13.7672 12.9879L14.4182 9.7004C14.4182 9.7004 15.1677 11.4284 15.2018 11.5076C15.3357 11.8186 15.424 11.9039 15.8549 11.994C16.1897 12.064 20.4933 12.9636 20.6101 12.988C20.6116 12.9883 20.6127 12.9874 20.6129 12.986C20.6425 12.7944 20.5887 12.0607 20.0786 11.8663ZM10.6908 2.82139C10.6192 2.4769 10.6477 2.1155 10.7632 1.76063C11.0958 0.735429 12.1811 0.303647 13.0911 0.591102C14.0004 0.878505 14.6166 1.93077 14.2887 2.942C14.1836 3.266 13.8504 4.28328 13.6601 4.86867C13.5793 5.11848 13.2825 5.07494 12.9348 5.02864C12.5489 4.97754 12.0357 4.88128 12.0357 4.88128C12.0357 4.88128 10.7975 3.3354 10.6908 2.82139Z" fill="black"></path></svg>