<svg width="19" height="30" viewBox="0 0 19 30" fill="none" xmlns="http://www.w3.org/2000/svg"><path fill-rule="evenodd" clip-rule="evenodd" d="M14.3608 11.3266L13.9848 12.4939C13.9848 12.4939 15.4388 12.8219 16.0945 12.9324C16.8034 13.0518 17.7075 13.0035 17.8422 12.2185L14.3608 11.3266ZM1.00408 22.2455C1.63066 21.9282 6.96229 19.194 6.96229 19.194L8.18601 16.3262C7.57742 14.7517 8.70731 13.4548 8.70731 13.4548L9.50993 12.2776L9.53446 7.85536L7.33683 8.86655L8.28846 13.2525C8.28846 13.2525 7.44303 13.7065 6.98408 12.5583C6.77235 12.0285 6.07598 10.1583 5.68258 9.16761C5.30876 8.22607 5.41092 7.87902 6.23278 7.39609C7.05464 6.91317 9.88139 5.25217 9.88139 5.25217C10.7144 4.78022 11.402 4.85681 12.0552 5.12351C12.1478 5.1613 13.2084 5.55912 13.6914 5.74014C13.8373 5.79476 13.9834 5.92493 14.0068 6.07621C14.1688 7.12473 14.5087 9.05978 14.2764 10.0184L12.8768 15.0111L16.7359 20.2512L18.6455 28.9141C17.7155 29.2369 17.1378 28.791 16.7744 27.777C16.0409 25.7302 14.5389 21.3649 14.5389 21.3649L9.85475 17.0642L9.73185 17.4428L10.8076 18.7242C10.8076 18.7242 9.56717 20.6341 9.41965 20.8576C9.16876 21.2377 8.69191 21.4041 8.14643 21.5708C7.60099 21.7374 0.140274 24.0168 0.140274 24.0168C-0.0777092 23.0972 0.364221 22.5696 1.00408 22.2455ZM14.6082 0.329503C14.1683 0.0509257 13.6155 -0.0539353 13.0922 0.0344779C12.5722 0.122278 12.0814 0.400855 11.7591 0.889296C11.535 1.22886 11.4007 1.59905 11.3765 1.97957C11.3402 2.55303 12.3488 4.7117 12.3488 4.7117C12.3488 4.7117 12.7068 4.8587 13.1059 5.0228C13.3538 5.12474 13.5662 5.23266 13.7253 5.20575C13.7931 5.1943 13.8511 5.15839 13.8982 5.08708C14.2677 4.5272 14.9882 3.43537 15.1926 3.1255C15.8308 2.15814 15.4845 0.884394 14.6082 0.329503Z" fill="black"></path></svg>