<svg width="24" height="30" viewBox="0 0 24 30" fill="none" xmlns="http://www.w3.org/2000/svg"><path fill-rule="evenodd" clip-rule="evenodd" d="M17.3288 26.5471L13.403 10.4171C13.232 10.3959 13.0832 10.2735 13.0404 10.0994L13.0103 9.97647C12.1736 10.2832 10.7862 10.7971 9.7152 11.1945L8.58532 14.4661C8.58532 14.4661 9.96726 15.4382 11.0155 16.1757L11.4025 14.6319C11.2586 14.5353 11.1829 14.357 11.2279 14.1816L11.2387 14.1395C10.4684 14.0419 9.18074 13.6863 9.18074 13.6863L9.67292 12.3127L11.5828 12.8045L11.6073 12.7093C11.6649 12.4852 11.8982 12.348 12.1259 12.4047L12.2288 12.4303C12.4565 12.4869 12.5957 12.7166 12.5382 12.9408L12.5117 13.0436L13.3749 13.2658C13.3749 13.2658 13.2946 13.5539 13.0067 13.8224C12.8043 14.011 12.5303 14.1052 12.2276 14.1459L12.1587 14.4131C12.1152 14.5825 11.9713 14.702 11.8053 14.7259L11.3779 16.4307C11.6782 16.6419 11.9236 16.8145 12.0584 16.9094C12.876 17.4845 13.0009 17.6899 13.0382 18.7649C13.0665 19.5805 13.3265 26.1782 13.3265 26.1782C12.57 26.2799 11.8602 25.7174 11.7119 24.7237C11.5635 23.7299 10.8631 19.0429 10.8631 19.0429L10.733 19.003L8.48881 27.9539L9.70604 27.0874L11.1969 27.0692L13.9793 26.4256L16.5715 27.468L17.3288 26.5471ZM23.258 27.6725H22.607L21.4337 26.7853L20.404 26.588L17.579 26.8633L15.6566 29.2011H15.1463L16.3108 27.785L13.9466 26.8343L11.2452 27.4591L9.83646 27.4764L6.37654 29.9391H5.69962L7.96968 28.3233L10.3369 18.8816L7.49359 18.0097L5.47369 22.8087C5.47369 22.8087 3.6793 26.257 1.82468 29.9391C1.23268 29.7785 0.74438 28.9434 1.17136 27.7787C1.59834 26.6141 3.21605 22.2981 3.21605 22.2981L3.85851 16.856C3.5356 16.2189 3.3849 15.5532 3.42749 15.1163C3.46739 14.7069 3.5977 14.4691 3.5977 14.4691L6.90345 14.4082L7.00431 14.1375L3.42692 14.1723L3.09232 15.0435C3.09232 15.0435 1.87431 14.7587 1.49572 14.6757C0.245109 14.4015 -0.0170493 13.9105 0.0719583 12.8172C0.248369 10.6513 0.414275 9.86684 0.780966 6.36746C0.822986 5.96622 1.19816 5.86753 1.19816 5.86753C1.19816 5.86753 0.871526 5.60956 0.913494 5.29911C0.977404 4.82618 1.04168 4.46606 1.05922 4.3422C1.2435 3.0406 1.44247 2.66988 2.466 2.5748C3.30516 2.49685 4.22468 2.4598 5.42861 2.44742C6.5618 2.43576 6.76978 3.47068 6.59084 4.45979C6.53945 4.74359 6.4671 5.08914 6.39761 5.40683C6.78753 4.96671 7.47879 4.91438 8.04647 5.16343C8.46636 5.34757 9.04336 5.6038 9.48451 5.80858C10.1039 6.09604 10.204 7.19476 10.204 8.0058C10.204 8.33831 10.2005 8.97301 10.2005 8.97301L9.26831 9.18089L8.93929 7.95867L8.66875 7.8425L9.03917 9.53902L12.6895 8.66348L12.6795 8.62251C12.6243 8.39782 12.7659 8.16951 12.9941 8.11519L13.0973 8.09063C13.3256 8.03627 13.5575 8.17567 13.6126 8.40036L13.6222 8.43975L14.4121 8.25036C14.5546 8.54563 14.4699 9.27688 13.9114 9.6232L13.9735 9.87729C14.0163 10.0518 13.9401 10.2282 13.7971 10.3239L17.7236 26.4568L20.4228 26.1938L21.6012 26.4196L23.258 27.6725ZM8.39234 4.79443C8.39234 4.79443 7.50785 3.11814 7.49465 2.57066C7.48575 2.20713 7.58232 1.84441 7.76644 1.5041C8.29696 0.520844 9.53919 0.287029 10.4143 0.744571C11.2889 1.20191 11.7213 2.38469 11.1981 3.35455C11.0305 3.66525 10.5021 4.65207 10.1986 5.21346C10.0697 5.45303 9.7675 5.46526 9.4432 5.30308C9.00866 5.08577 8.39234 4.79443 8.39234 4.79443Z" fill="black"></path></svg>