<svg width="27" height="27" viewBox="0 0 27 27" fill="none" xmlns="http://www.w3.org/2000/svg"><path fill-rule="evenodd" clip-rule="evenodd" d="M20.2354 6.74559C17.8262 5.80854 17.035 4.75455 15.9183 4.85362C15.0545 4.88157 12.5784 5.17468 11.7482 5.24121C11.0889 5.29401 10.5912 5.4761 10.2503 5.64823C8.22842 6.66923 3.62663 9.212 3.62663 9.212C3.77008 9.67701 4.57165 9.95741 5.15062 9.73866C5.72955 9.51986 11.6906 7.26745 11.6906 7.26745L12.3294 7.20665L11.2152 7.76064L10.0311 11.5335L7.25564 14.8681L8.96576 16.8337L8.64917 16.8334L7.79464 16.1418C7.79464 16.1418 2.12013 16.3348 1.56979 16.351C0.239756 16.3898 0.027832 16.9185 0.027832 17.3393L7.23595 18.6162C7.23595 18.6162 7.74937 18.7229 8.49861 18.2913C9.18872 17.8938 11.3395 16.7032 11.3395 16.7032L11.4273 16.7103L10.7603 17.4559L10.3918 18.7006L10.3927 18.7008L12.5627 19.2253L12.4281 19.4254L11.4108 19.275C11.4108 19.275 10.0684 22.3899 9.56543 23.6141C9.06249 24.8383 9.22482 25.7214 9.80411 25.977C12.2367 22.0545 13.933 19.5323 13.933 19.5323L14.6893 13.6763L15.3999 11.9904L17.4978 7.92148L19.2281 8.37583C19.4692 8.43912 19.7191 8.46347 19.9682 8.44783C21.1165 8.3757 24.5521 8.15975 25.4245 8.1025C26.4766 8.03348 26.5443 6.91456 26.5443 6.91456L20.2354 6.74559ZM16.5082 23.4894C16.4251 23.1992 16.2688 22.9387 16.0598 22.7279L15.6925 22.722L15.2646 23.4203L15.4941 23.8185L16.3005 23.8232L16.5082 23.4894ZM16.5063 24.4564L16.3156 24.1344L15.4739 24.1295L15.2459 24.5054L15.6594 25.1988L16.0742 25.1972C16.2745 24.9904 16.4247 24.7374 16.5063 24.4564ZM15.1748 25.7081L15.3864 25.3589L14.9669 24.6553L14.5297 24.6569L14.1175 25.3727L14.3174 25.7101C14.4537 25.7417 14.5956 25.7589 14.7417 25.7589C14.8909 25.7589 15.0359 25.7411 15.1748 25.7081ZM13.4048 25.1932L13.8561 25.1914L14.2489 24.5092L14.0301 24.1398L13.1616 24.1575L12.9778 24.461C13.0592 24.7384 13.2075 24.9884 13.4048 25.1932ZM12.9919 23.431L13.2305 23.845L13.9908 23.8295L14.2493 23.4139L13.8534 22.7067L13.4503 22.7003C13.2418 22.9019 13.0826 23.1517 12.9919 23.431ZM14.3281 22.2275L14.1287 22.5481L14.5214 23.2495L14.9936 23.2571L15.4151 22.5693L15.2281 22.2453C15.0732 22.2037 14.9103 22.181 14.7419 22.181C14.5996 22.181 14.4612 22.1974 14.3281 22.2275ZM16.9894 23.7693C17.1146 25.14 15.9418 26.2834 14.5359 26.1613C13.4583 26.0676 12.5905 25.2216 12.4944 24.1709C12.369 22.8 13.542 21.6564 14.948 21.7787C16.0257 21.8724 16.8934 22.7186 16.9894 23.7693ZM13.3769 4.43582C13.5086 4.69191 13.8994 4.6236 14.1245 4.59995L14.9393 4.5144C14.9393 4.5144 16.069 2.8986 16.1862 2.37776C16.2639 2.03221 16.2399 1.66844 16.1278 1.30951C15.8038 0.273615 14.6505 -0.177446 13.7193 0.099617C12.7888 0.376235 12.1455 1.42666 12.4654 2.44905C12.568 2.77651 13.3769 4.43582 13.3769 4.43582Z" fill="black"></path></svg>