<svg width="20" height="30" viewBox="0 0 20 30" fill="none" xmlns="http://www.w3.org/2000/svg"><path fill-rule="evenodd" clip-rule="evenodd" d="M2.88234 9.31075C2.88297 9.31075 2.88356 9.31075 2.88419 9.31071C3.14552 9.30358 7.34792 9.07106 7.94075 9.03199C8.34739 9.00524 9.18541 8.66755 9.11287 7.86722C9.11287 7.86722 5.51658 7.83086 4.45888 7.83086C2.90459 7.83086 2.62432 9.31075 2.88234 9.31075ZM19.7799 8.48928H18.486C18.3104 6.30705 17.262 4.19149 15.4313 2.34117C13.9473 0.841427 12.4965 0.0523295 12.4355 0.0195312L12.2296 0.422313C12.2349 0.425201 12.4314 0.532167 12.7482 0.737348L9.96733 5.28101V5.96513L13.0456 0.935626C13.5959 1.31346 14.3583 1.89517 15.1203 2.66527C16.3561 3.91436 17.8233 5.91067 18.042 8.48928H9.4011C9.24087 8.91241 8.63091 9.3835 7.96276 9.42816C7.44701 9.46258 3.60354 9.67489 2.96543 9.70444C2.972 9.71012 2.97848 9.71581 2.98601 9.72122C3.3477 9.98307 5.57883 11.5064 5.57883 11.5064C5.57883 11.5064 6.20692 13.8261 6.20692 14.6183C6.20692 15.4104 6.16491 16.3112 6.16491 16.3112C5.24873 17.4325 3.83536 22.5774 3.83536 22.5774L0.0698242 28.9132C0.194255 29.1917 1.25585 29.4246 2.0018 28.4739C2.74775 27.5231 8.84003 19.7302 8.84003 19.7302L11.6271 22.647C11.6271 22.647 12.1478 26.9696 12.2815 28.0093C12.4152 29.0491 13.1399 29.5946 13.7542 29.4002C13.7542 29.4002 13.6875 23.4657 13.6875 22.8131C13.6875 21.7489 13.6043 21.5576 13.2285 20.9121C12.9917 20.5054 10.6533 16.2589 10.6533 16.2589V11.5974L10.9544 10.5446L18.0631 9.37722C17.9615 11.786 16.4661 13.8456 15.194 15.1736C14.442 15.9587 13.6819 16.5834 13.1183 17.0069L11.1862 14.1432V14.7824L12.83 17.2188C12.4605 17.4843 12.2267 17.6287 12.2208 17.6323L12.4476 18.0231C12.5103 17.9848 14 17.0668 15.5026 15.5003C17.5077 13.4098 18.5483 11.1648 18.5119 9.00765C18.5111 8.95613 18.5091 8.90465 18.5072 8.85313H19.7799C19.8778 8.85313 19.9571 8.77174 19.9571 8.67123C19.9571 8.57076 19.8778 8.48928 19.7799 8.48928ZM6.29509 6.1107C6.19368 5.81259 6.17582 5.48767 6.23305 5.15798C6.39795 4.20629 7.32184 3.6863 8.13463 3.83454C8.947 3.98261 9.59793 4.84628 9.43507 5.78556C9.38931 6.04993 9.24208 6.89953 9.14307 7.47077L9.11756 7.4705C9.10102 7.47032 8.33559 7.46265 7.41188 7.45439C6.9848 7.02481 6.39124 6.39344 6.29509 6.1107Z" fill="black"></path></svg>