<svg xmlns="http://www.w3.org/2000/svg" class="de-Icon de-PriceCompareIcon" width="26" height="26" viewBox="0 0 26 26"><path d="M17.07,14.7a2.41,2.41,0,0,0-1.91.73c-1.36,1.21-1.1,2-1.1,3.44" style="fill:none;stroke:#fff;stroke-miterlimit:10;stroke-width:0.37878785918830726px"></path><path d="M4.72,13,6,5.7h5.56a1.86,1.86,0,0,1,1.66.76c.34.49,1.64,3,3.88,7.57" style="fill:none;stroke:#2a2b2c;stroke-linecap:round;stroke-linejoin:round;stroke-width:0.7575757183766145px"></path><path d="M13.47,17.43H10L5.67,13.29l-3.91-.48c-.43,0-.69.17-.78.48S.71,14.84.42,17a1,1,0,0,0,.24.81c.22.26,1.45,1.41,1.45,1.41H13.47Z" style="fill:none;stroke:#2a2b2c;stroke-linecap:round;stroke-linejoin:round;stroke-width:0.5681817768995577px"></path><path d="M13.58,16.22H11.65c-.35,0-.53-.15-.53-.45V14H6.47" style="fill:none;stroke:#2a2b2c;stroke-linecap:round;stroke-linejoin:round;stroke-width:0.4734848299268357px"></path><path d="M17.26,14.36c-.14,0,.82-.16-.83,0a3.43,3.43,0,0,0-3,3.14v1.75" style="fill:none;stroke:#2a2b2c;stroke-miterlimit:10;stroke-width:0.7575757183766145px"></path><path d="M23.13,5.61v.65c0,.09-.1.15-.24.15H21.1c-.13,0-.24-.06-.24-.15V5.61" style="fill:none;stroke:#2a2b2c;stroke-miterlimit:10;stroke-width:0.39689427548719913px"></path><path d="M17.45,7.51h.38a.36.36,0,0,1,.38.33v7.29a.36.36,0,0,1-.38.33h-.38a.36.36,0,0,1-.38-.33V7.84A.36.36,0,0,1,17.45,7.51Z" style="fill:#fff;stroke:#2a2b2c;stroke-miterlimit:10;stroke-width:0.6200662913969252px"></path><path d="M17.45,20.77a2.66,2.66,0,1,0-2.65-2.66A2.66,2.66,0,0,0,17.45,20.77Z" style="fill:none;stroke:#2a2b2c;stroke-miterlimit:10;stroke-width:0.7575757183766145px"></path><path d="M17.45,19.25a1.14,1.14,0,1,0-1.14-1.14A1.14,1.14,0,0,0,17.45,19.25Z" style="fill:none;stroke:#2a2b2c;stroke-miterlimit:10;stroke-width:0.37878785918830726px"></path><path d="M4.57,20.77a2.66,2.66,0,1,0-2.65-2.66A2.66,2.66,0,0,0,4.57,20.77Z" style="fill:#fff;stroke:#2a2b2c;stroke-miterlimit:10;stroke-width:0.7575757183766145px"></path><path d="M4.57,19.25a1.14,1.14,0,1,0-1.13-1.14A1.14,1.14,0,0,0,4.57,19.25Z" style="fill:none;stroke:#2a2b2c;stroke-miterlimit:10;stroke-width:0.37878785918830726px"></path><line x1="18.4" y1="13" x2="22.56" y2="13" style="fill:none;stroke:#2a2b2c;stroke-linecap:round;stroke-miterlimit:10;stroke-width:0.4734848299268357px"></line><path d="M22.53,10.82h0Z" style="fill:none;stroke:#2a2b2c;stroke-linecap:round;stroke-linejoin:round;stroke-width:0.4734848299268357px"></path><path d="M12.18,11.8l.52.56Z" style="fill:none;stroke:#2a2b2c;stroke-linecap:round;stroke-linejoin:round;stroke-width:0.38825755863874073px"></path><path d="M12.46,11.55l-.56.51Z" style="fill:none;stroke:#2a2b2c;stroke-linecap:round;stroke-linejoin:round;stroke-width:0.38825755863874073px"></path><rect x="13.37" y="12.15" width="0.97" height="2.92" rx="0.32" transform="translate(-5.55 13.11) rotate(-43)" style="fill:none;stroke:#2a2b2c;stroke-miterlimit:10;stroke-width:0.4282069206237793px"></rect><rect x="18.4" y="5.23" width="7.2" height="6.82" rx="0.76" style="fill:none;stroke:#2a2b2c;stroke-miterlimit:10;stroke-width:0.7575757183766145px"></rect><path d="M7.19,9.56a.26.26,0,0,1,.25.26v2.95a.32.32,0,0,0,.31.32h2.58a.26.26,0,0,1,0,.51H7.19a.25.25,0,0,1-.25-.25V9.82a.26.26,0,0,1,.25-.26m0-.5a.76.76,0,0,0-.75.76v3.53a.75.75,0,0,0,.74.75h3.15a.76.76,0,0,0,0-1.51H7.94V9.82a.76.76,0,0,0-.75-.76Z" style="fill:#2a2b2c"></path></svg>