<svg width="33" height="32" viewBox="0 0 33 32" fill="none" xmlns="http://www.w3.org/2000/svg">
  <path d="M16.9238 5.5C17.9184 5.5 18.8722 5.89509 19.5755 6.59835C20.2787 7.30161 20.6738 8.25544 20.6738 9.25V10H13.1738V9.25C13.1738 8.25544 13.5689 7.30161 14.2722 6.59835C14.9754 5.89509 15.9293 5.5 16.9238 5.5ZM22.1738 10V9.25C22.1738 7.85761 21.6207 6.52226 20.6361 5.53769C19.6516 4.55312 18.3162 4 16.9238 4C15.5314 4 14.1961 4.55312 13.2115 5.53769C12.227 6.52226 11.6738 7.85761 11.6738 9.25V10H6.42383V25C6.42383 25.7956 6.7399 26.5587 7.30251 27.1213C7.86512 27.6839 8.62818 28 9.42383 28H24.4238C25.2195 28 25.9825 27.6839 26.5451 27.1213C27.1078 26.5587 27.4238 25.7956 27.4238 25V10H22.1738ZM7.92383 11.5H25.9238V25C25.9238 25.3978 25.7658 25.7794 25.4845 26.0607C25.2032 26.342 24.8217 26.5 24.4238 26.5H9.42383C9.026 26.5 8.64447 26.342 8.36317 26.0607C8.08186 25.7794 7.92383 25.3978 7.92383 25V11.5Z" fill="black"></path>
  <rect x="7" y="11" width="19" height="16" fill="black" class="cart-icon-filling de-u-hidden"></rect>
  <text fill="white" aria-hidden="true" class="de-MenuBar-label js-de-MenuBar-cart-count cart-icon-filling de-u-hidden" id="CartCount" x="50%" y="62%" dominant-baseline="middle" text-anchor="middle">
    0
  </text>
</svg>