<svg xmlns="http://www.w3.org/2000/svg" class="de-Icon de-PriceCompareIcon" width="26" height="26" viewBox="0 0 26 26"><defs><clipPath id="a"><path d="M113.44,8H96.56V24.88h16.88ZM96.17,7.22h17.66a.38.38,0,0,1,.38.39V25.26a.38.38,0,0,1-.38.38H96.17a.38.38,0,0,1-.38-.38V7.61A.38.38,0,0,1,96.17,7.22Z" style="fill:none"></path></clipPath><clipPath id="b"><path d="M110.2,9.83a.29.29,0,0,0,0-.58h-.58a.29.29,0,1,0,0,.58Zm1.41.31a.3.3,0,0,0,.13.25.29.29,0,0,0,.44-.25V9.57a.3.3,0,0,0-.14-.25.29.29,0,0,0-.43.25Zm0,2.31a.28.28,0,0,0,.13.24.29.29,0,0,0,.44-.24v-.58a.27.27,0,0,0-.14-.24.28.28,0,0,0-.43.24Zm0,2.3a.31.31,0,0,0,.13.25.29.29,0,0,0,.44-.25v-.58a.27.27,0,0,0-.14-.24.28.28,0,0,0-.43.24Zm0,2.3a.31.31,0,0,0,.13.25.29.29,0,0,0,.44-.25v-.57a.29.29,0,0,0-.14-.25.28.28,0,0,0-.43.25Zm0,2.3a.29.29,0,1,0,.57,0v-.57a.3.3,0,0,0-.14-.25.29.29,0,0,0-.43.25Zm0,2.31a.28.28,0,0,0,.13.24.29.29,0,0,0,.44-.24v-.58a.27.27,0,0,0-.14-.24.28.28,0,0,0-.43.24ZM111.26,23a.27.27,0,0,0-.24.14.28.28,0,0,0,.24.43h.58a.28.28,0,0,0,.24-.13.29.29,0,0,0-.24-.44ZM109,23a.3.3,0,0,0-.25.14.29.29,0,0,0,.25.43h.57a.29.29,0,1,0,0-.57Zm-2.3,0a.29.29,0,0,0-.25.14.28.28,0,0,0,.25.43h.57a.31.31,0,0,0,.25-.13.29.29,0,0,0-.25-.44Zm-2.31,0a.27.27,0,0,0-.24.14.28.28,0,0,0,.24.43h.58a.31.31,0,0,0,.25-.13.29.29,0,0,0-.25-.44Zm-2.3,0a.27.27,0,0,0-.24.14.28.28,0,0,0,.24.43h.58a.28.28,0,0,0,.24-.13.29.29,0,0,0-.24-.44Zm-2.3,0a.3.3,0,0,0-.25.14.29.29,0,0,0,.25.43h.57a.3.3,0,0,0,.25-.13.29.29,0,0,0-.25-.44Zm-1.36-.37a.29.29,0,1,0-.57,0v.57a.3.3,0,0,0,.14.25.29.29,0,0,0,.43-.25Zm0-4.61a.31.31,0,0,0-.13-.25.29.29,0,0,0-.44.25v.58a.27.27,0,0,0,.14.24.28.28,0,0,0,.43-.24Zm0,2.3a.28.28,0,0,0-.13-.24.29.29,0,0,0-.44.24v.58a.27.27,0,0,0,.14.24.28.28,0,0,0,.43-.24Z" style="fill:none"></path></clipPath><clipPath id="c"><path d="M104.35,13.24a.3.3,0,0,0,0,.29.3.3,0,0,0,.5.07v0l0-.05,0-.06,0-.05,0-.06,0,0,0-.06,0-.05,0-.06,0,0a.29.29,0,0,0-.29-.45.35.35,0,0,0-.19.12v0l0,0,0,.05,0,.06,0,0,0,.05,0,.06,0,0,0,.05Z" style="fill:none"></path></clipPath><clipPath id="d"><path d="M101,16.13a.29.29,0,0,0,0,.48.31.31,0,0,0,.32,0l0,0,.06,0,.06,0,.06,0,.06,0,.06,0,.06,0,.06,0,0,0a.29.29,0,1,0-.3-.49l0,0-.05,0-.06,0-.05,0-.06,0-.06,0-.06,0,0,0Z" style="fill:none"></path></clipPath><clipPath id="e"><path d="M98.89,17a.29.29,0,0,0-.2.34.29.29,0,0,0,.36.21l0,0,.07,0,.06,0,.07,0,.07,0,.07,0,.06,0,.07,0h0a.29.29,0,0,0-.19-.55l0,0-.06,0-.07,0-.06,0-.06,0-.07,0L99,17l-.07,0Z" style="fill:none"></path></clipPath><clipPath id="f"><path d="M102.8,14.86a.31.31,0,0,0-.1.27.29.29,0,0,0,.47.17h0l.06,0,.05-.05,0,0,0-.05.06,0,0,0,0,0,0,0v0a.29.29,0,0,0-.18-.5.32.32,0,0,0-.21.08h0l0,.05,0,0,0,0,0,0,0,0,0,0-.06.05,0,0Z" style="fill:none"></path></clipPath><clipPath id="g"><path d="M113.46,1.21a.7.7,0,0,0-.51.23l-.12.18h.53a.42.42,0,1,1,0,.84h-1l-3.15,5h.15l4.57-4.93s0,0,.06,0a.7.7,0,0,0,.28-.52.65.65,0,0,0-.21-.54A.76.76,0,0,0,113.46,1.21Zm.66-.74a1.57,1.57,0,0,1,1,1.56,1.55,1.55,0,0,1-.53,1.06l-.07.06-4.12,4.43h3.4a.43.43,0,0,1,.31.12c.08.07,0,.15,0,.25V13.7h-.66l0-5.35h-3.81l-3.48,3.76a.45.45,0,0,1-.6.06.41.41,0,0,1-.14-.52l0-.05,2-3.25H96.4v5.36h-.56v0c0-.49-.08-5.9,0-6a.57.57,0,0,1,.26-.12H108l3.22-5.1H99.69a.87.87,0,0,0-.89.85.87.87,0,0,0,.82.85h8.9a.43.43,0,0,1,0,.85H99.69a1.73,1.73,0,0,1-1.77-1.7,1.73,1.73,0,0,1,1.68-1.7h12.2l.42-.67,0,0A1.68,1.68,0,0,1,114.12.47Z" style="fill:none"></path></clipPath><clipPath id="h"><path d="M114.94,4.5h-.83a.42.42,0,0,0,0,.84h.83A1.66,1.66,0,0,1,116.6,7v.84a1.68,1.68,0,0,1-1.66,1.68.42.42,0,1,0,0,.83,2.49,2.49,0,0,0,2.49-2.51V7A2.5,2.5,0,0,0,114.94,4.5Z" style="fill:none"></path></clipPath><clipPath id="i"><path d="M92.92,13.21a.3.3,0,0,0,.25-.14.5.5,0,0,0,.11-.32V11.37a1.67,1.67,0,0,1,1.43-1.84c.19,0,.35-.21.35-.47s-.16-.46-.35-.46c-1.19,0-2.14,1.24-2.14,2.77v1.38a.49.49,0,0,0,.1.32A.33.33,0,0,0,92.92,13.21Z" style="fill:none"></path></clipPath></defs><title>product-research</title><path d="M24.71,22.28h-8.9c-4.58-5-8.75-9.48-12.74-13.82A2,2,0,0,1,5.19,6.58h0l11.63,13.5a.44.44,0,0,0,.34.16h7.63A1.61,1.61,0,0,1,24.71,22.28ZM10.53,1.72a10.18,10.18,0,0,0,0,1.48c.11,1.57.6,2.62,1.45,3.13a2.2,2.2,0,0,1,.76.71,1.83,1.83,0,0,0,1.81.83,18.57,18.57,0,0,0,3-.36c.12.46.23.92.35,1.38l-6.51,3.53L5.91,6.05A6.31,6.31,0,0,1,10.53,1.72ZM18.66,12l-5.27,2.79L12,13.1l6.14-3.33Zm1.39,4.24c1.94.13,3.29.65,4,1.56a2.61,2.61,0,0,1,.56,1.61H17.37L14,15.42l4.9-2.59c.26,1,.51,2,.76,3A.46.46,0,0,0,20.05,16.19Zm5.45,3.5a3.47,3.47,0,0,0-.72-2.46c-.83-1.07-2.29-1.7-4.34-1.89-.52-2.06-1-4.13-1.55-6.19l0-.14h0c-.17-.7-.35-1.4-.52-2.11a.45.45,0,0,0-.53-.32A20.09,20.09,0,0,1,14.54,7c-.74,0-.84-.13-1.08-.46a3.17,3.17,0,0,0-1-1c-1.22-.72-1.1-3.39-.95-4.36a.43.43,0,0,0-.14-.38A.46.46,0,0,0,11,.73a7.31,7.31,0,0,0-5.87,5c-1.16,0-2.57.55-2.93,2.82a.37.37,0,0,0,.1.35L15.27,23a.49.49,0,0,0,.34.15h9.32a.46.46,0,0,0,.35-.16A2.53,2.53,0,0,0,25.5,19.69Z"></path><ellipse cx="11.37" cy="14.52" rx="5.68" ry="5.55" style="fill:#fff;opacity:0.815500020980835"></ellipse><path d="M5.68,14.53a5.62,5.62,0,0,0,5.69,5.54,5.61,5.61,0,0,0,5.68-5.54A5.61,5.61,0,0,0,11.37,9,5.62,5.62,0,0,0,5.68,14.53ZM1.31,23a1,1,0,0,0-.31.7,1,1,0,0,0,1,1,1,1,0,0,0,.72-.3h0l4.59-4.46A6.89,6.89,0,0,1,5.9,18.49Zm16.88-8.42a6.73,6.73,0,0,1-6.82,6.64,7,7,0,0,1-3.19-.77L3.44,25h0A2,2,0,0,1,2,25.6a2,2,0,0,1-2-2,1.9,1.9,0,0,1,.6-1.39h0l4.74-4.62a6.53,6.53,0,0,1-.79-3.11,6.73,6.73,0,0,1,6.82-6.64A6.73,6.73,0,0,1,18.19,14.53Z" style="fill:#464646"></path><path d="M11,10.23a4.81,4.81,0,0,0-4,4,.28.28,0,0,0,.29.28c.16,0,.25-.13.29-.28A4.25,4.25,0,0,1,11,10.8a.31.31,0,0,0,.29-.29A.27.27,0,0,0,11,10.23Z" style="fill:#464646"></path></svg>