<svg width="31" height="31" viewBox="0 0 31 31" fill="none" xmlns="http://www.w3.org/2000/svg"><path d="M15.2098 3.51953L18.2894 7.17506L23.0311 6.327L23.0077 11.0795L27.1928 13.4358L24.0772 17.0615L25.7475 21.5195L20.9976 22.322L19.3715 26.7958L15.2098 24.3995L11.0482 26.7958L9.42203 22.322L4.67217 21.5195L6.34242 17.0615L3.22685 13.4358L7.41196 11.0795L7.38849 6.327L12.1302 7.17506L15.2098 3.51953Z" fill="#001018"></path><path d="M12.6831 15.4402C13.8512 15.4402 14.8246 14.5042 14.8246 13.3882C14.8246 12.2362 13.8877 11.3242 12.6831 11.3242C11.515 11.3242 10.5537 12.2362 10.5537 13.3642C10.5537 14.5042 11.515 15.4402 12.6831 15.4402ZM13.4497 19.5202H14.1554L17.5502 11.4802H16.8566L13.4497 19.5202ZM12.6831 14.6122C12.0138 14.6122 11.4663 14.0482 11.4663 13.3762C11.4663 12.7042 12.0138 12.1522 12.6831 12.1522C13.3766 12.1522 13.912 12.7042 13.912 13.3882C13.912 14.0602 13.3523 14.6122 12.6831 14.6122ZM16.1752 17.6002C16.1752 18.7402 17.1365 19.6762 18.3168 19.6762C19.4727 19.6762 20.4461 18.7402 20.4461 17.6242C20.4461 16.4722 19.5092 15.5602 18.3046 15.5602C17.1365 15.5602 16.1752 16.4722 16.1752 17.6002ZM17.0878 17.6122C17.0878 16.9402 17.6354 16.3882 18.3046 16.3882C18.9982 16.3882 19.5336 16.9402 19.5336 17.6242C19.5336 18.2962 18.9738 18.8482 18.3168 18.8482C17.6354 18.8482 17.0878 18.2962 17.0878 17.6122Z" fill="white"></path></svg>